<?xml version="1.0" encoding="utf-8"?>
<!-- Generator: Adobe Illustrator 28.0.0, SVG Export Plug-In . SVG Version: 6.00 Build 0)  -->
<svg version="1.1" id="Calque_1" xmlns="http://www.w3.org/2000/svg" xmlns:xlink="http://www.w3.org/1999/xlink" x="0px" y="0px"
	 viewBox="0 0 500 500" style="enable-background:new 0 0 500 500;" xml:space="preserve">
<style type="text/css">
	.st0{fill:#EBEBEB;}
	.st1{fill:#F5F5F5;}
	.st2{fill:#E0E0E0;}
	.st3{opacity:0.5;fill:#E0E0E0;enable-background:new    ;}
	.st4{fill:#FAFAFA;}
	.st5{fill:#E6E6E6;}
	.st6{opacity:0.5;fill:#F0F0F0;enable-background:new    ;}
	.st7{opacity:0.6;fill:#E0E0E0;enable-background:new    ;}
	.st8{fill:#F0F0F0;}
	.st9{fill:#38312A;}
	.st10{opacity:0.5;fill:#FFFFFF;enable-background:new    ;}
	.st11{fill:#D6955A;}
	.st12{opacity:0.6;fill:#FFFFFF;enable-background:new    ;}
	.st13{opacity:0.4;}
	.st14{fill:#FFFFFF;}
	.st15{opacity:0.5;}
	.st16{opacity:0.6;enable-background:new    ;}
	.st17{opacity:0.2;fill:#FFFFFF;enable-background:new    ;}
	.st18{opacity:0.2;enable-background:new    ;}
	.st19{opacity:0.7;fill:#FFFFFF;enable-background:new    ;}
	.st20{opacity:0.8;fill:#D6955A;enable-background:new    ;}
	.st21{opacity:0.3;}
	.st22{opacity:0.8;fill:#FFFFFF;enable-background:new    ;}
	.st23{opacity:0.2;}
	.st24{fill:#EADDCC;}
	.st25{opacity:0.3;fill:#FFFFFF;enable-background:new    ;}
	.st26{opacity:0.1;enable-background:new    ;}
	.st27{fill:#D39954;}
	.st28{fill:#3A3632;}
</style>
<g id="freepik--background-complete--inject-4">
	<rect x="416.8" y="398.5" class="st0" width="33.1" height="0.2"/>
	<rect x="322.5" y="401.2" class="st0" width="8.7" height="0.2"/>
	<rect x="396.6" y="389.2" class="st0" width="19.2" height="0.2"/>
	<rect x="52.5" y="390.9" class="st0" width="43.2" height="0.2"/>
	<rect x="104.6" y="390.9" class="st0" width="6.3" height="0.2"/>
	<rect x="131.5" y="395.1" class="st0" width="93.7" height="0.2"/>
	<path class="st0" d="M238.4,337.8H45.3c-3.2,0-5.7-2.6-5.7-5.7V60.7c0-3.1,2.6-5.7,5.7-5.7h193.1c3.2,0,5.7,2.6,5.7,5.7
		c0,0,0,0,0,0v271.4C244.1,335.2,241.6,337.8,238.4,337.8z M45.3,55.2c-3,0-5.5,2.4-5.5,5.5v271.4c0,3,2.4,5.5,5.5,5.5h193.1
		c3,0,5.5-2.4,5.5-5.5V60.7c0-3-2.4-5.5-5.5-5.5H45.3z"/>
	<path class="st0" d="M454.7,337.8H261.6c-3.2,0-5.7-2.6-5.7-5.7V60.7c0-3.1,2.6-5.7,5.7-5.7h193.1c3.2,0,5.7,2.6,5.7,5.7v271.4
		C460.4,335.2,457.9,337.8,454.7,337.8z M261.6,55.2c-3,0-5.5,2.4-5.5,5.5v271.4c0,3,2.4,5.5,5.5,5.5h193.1c3,0,5.5-2.4,5.5-5.5
		V60.7c0-3-2.4-5.5-5.5-5.5H261.6z"/>
	<rect y="382.4" class="st0" width="500" height="0.2"/>
	<polygon class="st1" points="418.9,205 347.2,205 339,110.9 410.7,110.9 	"/>
	<path class="st2" d="M393,123h-36.1c-0.5,0-0.9-0.4-0.9-0.8l0,0c0-0.4,0.3-0.8,0.7-0.8c0,0,0.1,0,0.1,0h36.1c0.5,0,0.9,0.4,0.9,0.8
		l0,0c0,0.4-0.2,0.8-0.7,0.8C393.1,123,393.1,123,393,123z"/>
	<path class="st2" d="M405.2,169.1H361c-0.5,0-0.9-0.4-0.9-0.9l0,0c0-0.4,0.3-0.8,0.7-0.8c0,0,0.1,0,0.1,0h44.2
		c0.5,0,0.9,0.4,0.9,0.9l0,0c0,0.4-0.3,0.8-0.7,0.8C405.3,169.1,405.2,169.1,405.2,169.1z"/>
	<path class="st2" d="M405.6,174h-50.5c-0.5,0-0.9-0.4-0.9-0.9l0,0c0-0.4,0.3-0.8,0.7-0.8c0,0,0.1,0,0.1,0h50.5
		c0.5,0,0.9,0.4,0.9,0.9l0,0C406.4,173.6,406.1,174,405.6,174C405.7,174,405.7,174,405.6,174z"/>
	<path class="st2" d="M406.1,178.9h-50.5c-0.5,0-0.9-0.4-0.9-0.9l0,0c0-0.4,0.3-0.8,0.7-0.8c0,0,0.1,0,0.1,0h50.5
		c0.5,0,0.9,0.4,0.9,0.9l0,0C406.9,178.5,406.6,178.8,406.1,178.9C406.1,178.9,406.1,178.9,406.1,178.9z"/>
	<path class="st2" d="M406.5,183.8H356c-0.5,0-0.9-0.3-1-0.8l0,0c0-0.4,0.3-0.8,0.7-0.8c0,0,0.1,0,0.1,0h50.5c0.5,0,0.9,0.4,0.9,0.9
		l0,0C407.2,183.4,406.9,183.8,406.5,183.8C406.5,183.8,406.5,183.8,406.5,183.8z"/>
	<path class="st2" d="M406.9,188.7h-44.2c-0.5,0-0.9-0.4-0.9-0.9l0,0c0-0.4,0.3-0.8,0.7-0.8c0,0,0.1,0,0.1,0h44.2
		c0.5,0,0.9,0.4,0.9,0.9l0,0C407.7,188.3,407.4,188.7,406.9,188.7C407,188.7,406.9,188.7,406.9,188.7z"/>
	<path class="st2" d="M407.4,193.6h-50.5c-0.5,0-0.9-0.4-0.9-0.9l0,0c0-0.4,0.3-0.8,0.7-0.8c0,0,0.1,0,0.1,0h50.5
		c0.5,0,0.9,0.4,0.9,0.8l0,0C408.2,193.2,407.9,193.6,407.4,193.6C407.4,193.6,407.4,193.7,407.4,193.6z"/>
	<path class="st2" d="M407.8,198.6h-50.5c-0.5,0-0.9-0.4-0.9-0.9l0,0c0-0.4,0.3-0.8,0.7-0.8c0,0,0.1,0,0.1,0h50.5
		c0.5,0,0.9,0.4,0.9,0.8l0,0C408.6,198.1,408.3,198.5,407.8,198.6C407.8,198.6,407.8,198.6,407.8,198.6z"/>
	<path class="st2" d="M389.3,128.6h-27.7c-0.5,0-0.9-0.4-0.9-0.8l0,0c0-0.4,0.2-0.8,0.7-0.8c0,0,0.1,0,0.1,0h27.7
		c0.5,0,0.9,0.4,0.9,0.8l0,0c0,0.4-0.2,0.8-0.7,0.8C389.4,128.6,389.3,128.6,389.3,128.6z"/>
	<path class="st2" d="M385.3,134.2h-18.6c-0.5,0-0.9-0.4-0.9-0.9l0,0c0-0.4,0.2-0.8,0.7-0.8c0,0,0.1,0,0.1,0h18.6
		c0.5,0,0.9,0.4,0.9,0.8l0,0C386.1,133.8,385.8,134.2,385.3,134.2C385.3,134.2,385.3,134.2,385.3,134.2z"/>
	<polygon class="st3" points="405.3,160.8 353.1,160.8 351.4,140.8 403.6,140.8 	"/>
	<polygon class="st1" points="68.7,274.2 128,274.2 134.8,196.5 75.5,196.5 	"/>
	<path class="st2" d="M90.1,206.5H120c0.4,0,0.7-0.3,0.8-0.7l0,0c0-0.3-0.2-0.7-0.6-0.7c0,0-0.1,0-0.1,0H90.2
		c-0.4,0-0.7,0.3-0.8,0.7l0,0C89.4,206.1,89.7,206.5,90.1,206.5C90.1,206.5,90.1,206.5,90.1,206.5z"/>
	<path class="st2" d="M80.1,244.6h36.6c0.4,0,0.7-0.3,0.8-0.7l0,0c0-0.3-0.2-0.7-0.6-0.7c0,0-0.1,0-0.1,0H80.2
		c-0.4,0-0.7,0.3-0.8,0.7l0,0C79.4,244.2,79.7,244.5,80.1,244.6C80,244.5,80,244.6,80.1,244.6z"/>
	<path class="st2" d="M79.7,248.6h41.7c0.4,0,0.7-0.3,0.8-0.7l0,0c0-0.3-0.2-0.7-0.6-0.7c0,0-0.1,0-0.1,0H79.8
		c-0.4,0-0.7,0.3-0.8,0.7l0,0C79,248.3,79.3,248.6,79.7,248.6C79.7,248.6,79.7,248.6,79.7,248.6z"/>
	<path class="st2" d="M79.4,252.7h41.8c0.4,0,0.7-0.3,0.8-0.7l0,0c0-0.3-0.2-0.7-0.6-0.7c0,0-0.1,0-0.1,0H79.5
		c-0.4,0-0.7,0.3-0.8,0.7l0,0C78.7,252.3,78.9,252.6,79.4,252.7C79.3,252.7,79.3,252.7,79.4,252.7z"/>
	<path class="st2" d="M79,256.7h41.7c0.4,0,0.7-0.3,0.8-0.7l0,0c0-0.3-0.2-0.7-0.6-0.7c0,0-0.1,0-0.1,0H79.1c-0.4,0-0.7,0.3-0.8,0.7
		l0,0C78.3,256.4,78.6,256.7,79,256.7C79,256.7,79,256.7,79,256.7z"/>
	<path class="st2" d="M78.7,260.8h36.6c0.4,0,0.7-0.3,0.8-0.7l0,0c0-0.3-0.2-0.7-0.6-0.7c0,0-0.1,0-0.1,0H78.8
		c-0.4,0-0.7,0.3-0.8,0.7l0,0C78,260.5,78.2,260.8,78.7,260.8C78.6,260.8,78.6,260.8,78.7,260.8z"/>
	<path class="st2" d="M78.3,264.9H120c0.4,0,0.7-0.3,0.8-0.7l0,0c0-0.3-0.2-0.7-0.6-0.7c0,0-0.1,0-0.1,0H78.4
		c-0.4,0-0.7,0.3-0.8,0.7l0,0C77.6,264.5,77.9,264.8,78.3,264.9C78.2,264.9,78.3,264.9,78.3,264.9z"/>
	<path class="st2" d="M77.9,268.9h41.7c0.4,0,0.7-0.3,0.8-0.7l0,0c0-0.3-0.2-0.7-0.5-0.7c0,0-0.1,0-0.1,0H78.1
		c-0.4,0-0.7,0.3-0.8,0.7l0,0C77.3,268.6,77.5,268.9,77.9,268.9C77.9,268.9,77.9,268.9,77.9,268.9z"/>
	<path class="st2" d="M93.2,211.1H116c0.4,0,0.7-0.3,0.8-0.7l0,0c0-0.3-0.2-0.7-0.6-0.7c0,0,0,0-0.1,0H93.3c-0.4,0-0.7,0.3-0.8,0.7
		l0,0C92.5,210.8,92.8,211.1,93.2,211.1C93.1,211.1,93.2,211.1,93.2,211.1z"/>
	<path class="st2" d="M96.5,215.8h15.4c0.4,0,0.7-0.3,0.8-0.7l0,0c0-0.4-0.2-0.7-0.6-0.7c0,0,0,0-0.1,0H96.7c-0.4,0-0.7,0.3-0.8,0.7
		l0,0C95.9,215.4,96.1,215.7,96.5,215.8C96.5,215.8,96.5,215.8,96.5,215.8z"/>
	<polygon class="st3" points="80,237.8 123.1,237.8 124.6,221.2 81.4,221.2 	"/>
	<polygon class="st4" points="201,185.4 277.4,185.4 286.2,85.1 209.8,85.1 	"/>
	<path class="st5" d="M228.6,98h38.5c0.5,0,0.9-0.4,1-0.9l0,0c0-0.4-0.3-0.8-0.7-0.9c0,0-0.1,0-0.1,0h-38.5c-0.5,0-0.9,0.4-1,0.9
		l0,0c0,0.4,0.3,0.8,0.7,0.9C228.5,98,228.5,98,228.6,98z"/>
	<path class="st5" d="M215.6,147.1h47.1c0.5,0,0.9-0.4,1-0.9l0,0c0-0.5-0.3-0.9-0.7-0.9c0,0-0.1,0-0.1,0h-47.2c-0.5,0-0.9,0.4-1,0.9
		l0,0c-0.1,0.4,0.3,0.8,0.7,0.9C215.5,147.1,215.6,147.1,215.6,147.1z"/>
	<path class="st5" d="M215.2,152.3H269c0.5,0,1-0.4,1-0.9l0,0c0-0.5-0.3-0.9-0.7-0.9c0,0-0.1,0-0.1,0h-53.9c-0.5,0-0.9,0.4-1,0.9
		l0,0c0,0.5,0.3,0.9,0.7,0.9C215.1,152.3,215.1,152.3,215.2,152.3z"/>
	<path class="st5" d="M214.7,157.6h53.8c0.5,0,0.9-0.4,1-0.9l0,0c0-0.5-0.3-0.9-0.7-0.9c0,0-0.1,0-0.1,0h-53.9c-0.5,0-1,0.4-1,0.9
		l0,0c0,0.5,0.3,0.9,0.7,0.9C214.6,157.6,214.7,157.6,214.7,157.6z"/>
	<path class="st5" d="M214.2,162.8h53.8c0.5,0,0.9-0.4,1-0.9l0,0c0-0.4-0.3-0.8-0.7-0.9c0,0-0.1,0-0.1,0h-53.9c-0.5,0-0.9,0.4-1,0.9
		l0,0c0,0.5,0.3,0.9,0.7,0.9C214.2,162.8,214.2,162.8,214.2,162.8z"/>
	<path class="st5" d="M213.8,168.1h47.1c0.5,0,0.9-0.4,1-0.9l0,0c0-0.4-0.3-0.8-0.7-0.9c0,0-0.1,0-0.1,0H214c-0.5,0-0.9,0.4-1,0.9
		l0,0C212.9,167.6,213.3,168,213.8,168.1C213.7,168,213.8,168,213.8,168.1z"/>
	<path class="st5" d="M213.3,173.3h53.8c0.5,0,1-0.4,1-0.9l0,0c0.1-0.4-0.3-0.8-0.7-0.9c0,0-0.1,0-0.1,0h-53.8c-0.5,0-0.9,0.4-1,0.9
		l0,0c-0.1,0.4,0.3,0.8,0.7,0.9C213.2,173.3,213.3,173.3,213.3,173.3z"/>
	<path class="st5" d="M212.9,178.5h53.8c0.5,0,0.9-0.4,1-0.9l0,0c0.1-0.4-0.3-0.8-0.7-0.9c0,0-0.1,0-0.1,0H213c-0.5,0-1,0.4-1,0.9
		l0,0c-0.1,0.4,0.3,0.8,0.7,0.9C212.8,178.5,212.8,178.5,212.9,178.5z"/>
	<path class="st5" d="M232.6,104H262c0.5,0,0.9-0.4,1-0.9l0,0c0.1-0.4-0.3-0.8-0.7-0.9c0,0-0.1,0-0.1,0h-29.5c-0.5,0-0.9,0.4-1,0.9
		l0,0c-0.1,0.4,0.3,0.8,0.7,0.9C232.5,104,232.5,104,232.6,104z"/>
	<path class="st5" d="M236.8,110h19.9c0.5,0,0.9-0.4,1-0.9l0,0c0-0.5-0.3-0.9-0.7-0.9c0,0-0.1,0-0.1,0H237c-0.5,0-0.9,0.4-1,0.9l0,0
		c0,0.5,0.3,0.9,0.7,0.9C236.8,110,236.8,110,236.8,110z"/>
	<polygon class="st6" points="215.5,138.3 271.1,138.3 273,117 217.4,117 	"/>
	<path class="st0" d="M422.9,261.1c-0.3,3-9.2,4.7-20,3.8s-19.4-4.2-19.1-7.2l1.1-13.2l39.1,3.4L422.9,261.1z"/>
	<path class="st7" d="M384.6,248.2c1.5,2.7,9.4,5.4,19.2,6.3s18-0.4,20-2.8l0.3-3.7l-39.1-3.4L384.6,248.2z"/>
	<path class="st0" d="M403.6,253.1l-31.5-12.8c-0.4-0.2-0.6-0.6-0.4-1c0.1-0.2,0.3-0.4,0.5-0.4l33.4-9.6c0.2-0.1,0.4-0.1,0.5,0
		l31.3,15.3c0.4,0.2,0.5,0.6,0.3,1c-0.1,0.2-0.3,0.4-0.5,0.4l-33.2,7.1C403.9,253.1,403.8,253.1,403.6,253.1z"/>
	<rect x="98.1" y="312.7" class="st8" width="42.2" height="6.5"/>
	<path class="st5" d="M99.5,316.5H139c1.8,0,3.3,1.5,3.3,3.3v63.7h-46v-63.7C96.3,317.9,97.7,316.5,99.5,316.5
		C99.5,316.4,99.5,316.4,99.5,316.5L99.5,316.5z"/>
	<path class="st5" d="M99.9,304.7h38.8c2,0,3.6,1.6,3.6,3.6v2.8c0,2-1.6,3.6-3.6,3.6H99.9c-2,0-3.6-1.6-3.6-3.6v-2.8
		C96.2,306.3,97.9,304.7,99.9,304.7z"/>
	<polygon class="st1" points="148.2,383.5 126.7,383.5 126.7,380.5 148.2,378.5 	"/>
</g>
<g id="freepik--Shadow--inject-4">
	<ellipse id="freepik--path--inject-4" class="st1" cx="250" cy="415.7" rx="193.9" ry="11.3"/>
</g>
<g id="freepik--Thesis--inject-4">
	<polygon class="st9" points="194.1,133.6 183.5,254.5 96.4,246.9 103.5,255.3 190.6,263 201.2,142.1 	"/>
	<polygon class="st10" points="194.1,133.6 183.5,254.5 96.4,246.9 103.5,255.3 190.6,263 201.2,142.1 	"/>
	
		<rect x="84.6" y="146.5" transform="matrix(8.715574e-02 -0.9962 0.9962 8.715574e-02 -56.9194 318.3885)" class="st11" width="121.4" height="87.4"/>
	
		<rect x="84.6" y="146.5" transform="matrix(8.715574e-02 -0.9962 0.9962 8.715574e-02 -56.9194 318.3885)" class="st12" width="121.4" height="87.4"/>
	<path class="st9" d="M196.5,151.2L196.5,151.2c-0.4,0-0.7-0.4-0.7-0.8c0,0,0,0,0,0l0.3-3.2c0-0.4,0.4-0.7,0.8-0.7c0,0,0,0,0,0l0,0
		c0.4,0,0.7,0.4,0.7,0.8l-0.3,3.2C197.3,150.9,196.9,151.2,196.5,151.2C196.5,151.2,196.5,151.2,196.5,151.2z"/>
	<path class="st9" d="M191.2,211.4L191.2,211.4c-0.4,0-0.7-0.4-0.7-0.8c0,0,0,0,0,0l4.8-55.2c0-0.4,0.4-0.7,0.8-0.7c0,0,0,0,0,0l0,0
		c0.4,0,0.7,0.4,0.7,0.8c0,0,0,0,0,0l-4.9,55.2C192,211.1,191.6,211.4,191.2,211.4z"/>
	<path class="st9" d="M188.7,240.7L188.7,240.7c-0.4,0-0.7-0.4-0.7-0.8l2-23.4c0-0.4,0.4-0.7,0.8-0.7c0,0,0,0,0,0l0,0
		c0.4,0,0.7,0.4,0.7,0.8l-2,23.4C189.4,240.4,189.1,240.7,188.7,240.7z"/>
	<path class="st9" d="M187.8,250.4L187.8,250.4c-0.4,0-0.7-0.4-0.7-0.8c0,0,0,0,0,0l0.4-4.3c0-0.4,0.4-0.7,0.8-0.7c0,0,0,0,0,0l0,0
		c0.4,0,0.7,0.4,0.7,0.8l-0.4,4.3C188.6,250.2,188.2,250.5,187.8,250.4z"/>
	<path class="st9" d="M127.5,254.3l-15.2-1.3c-0.4,0-0.7-0.4-0.7-0.8l0,0c0-0.4,0.4-0.7,0.8-0.7l15.2,1.3c0.4,0,0.7,0.4,0.7,0.8l0,0
		C128.3,254,127.9,254.3,127.5,254.3z"/>
	<path class="st9" d="M164.9,257.5l-30.7-2.7c-0.4,0-0.7-0.4-0.7-0.8c0,0,0,0,0,0l0,0c0-0.4,0.4-0.7,0.8-0.7c0,0,0,0,0,0l30.7,2.7
		c0.4,0,0.7,0.4,0.7,0.8c0,0,0,0,0,0l0,0C165.7,257.3,165.3,257.6,164.9,257.5C164.9,257.5,164.9,257.5,164.9,257.5z"/>
	<path class="st9" d="M173.5,258.3l-4.2-0.4c-0.4,0-0.7-0.4-0.7-0.8l0,0c0-0.4,0.4-0.7,0.8-0.7c0,0,0,0,0,0l4.2,0.4
		c0.4,0,0.7,0.4,0.7,0.8c0,0,0,0,0,0l0,0C174.3,258,173.9,258.3,173.5,258.3C173.5,258.3,173.5,258.3,173.5,258.3z"/>
	<g class="st13">
		<path class="st14" d="M196.5,151.2L196.5,151.2c-0.4,0-0.7-0.4-0.7-0.8c0,0,0,0,0,0l0.3-3.2c0-0.4,0.4-0.7,0.8-0.7c0,0,0,0,0,0
			l0,0c0.4,0,0.7,0.4,0.7,0.8l-0.3,3.2C197.3,150.9,196.9,151.2,196.5,151.2C196.5,151.2,196.5,151.2,196.5,151.2z"/>
		<path class="st14" d="M191.2,211.4L191.2,211.4c-0.4,0-0.7-0.4-0.7-0.8c0,0,0,0,0,0l4.8-55.2c0-0.4,0.4-0.7,0.8-0.7c0,0,0,0,0,0
			l0,0c0.4,0,0.7,0.4,0.7,0.8c0,0,0,0,0,0l-4.9,55.2C192,211.1,191.6,211.4,191.2,211.4z"/>
		<path class="st14" d="M188.7,240.7L188.7,240.7c-0.4,0-0.7-0.4-0.7-0.8l2-23.4c0-0.4,0.4-0.7,0.8-0.7c0,0,0,0,0,0l0,0
			c0.4,0,0.7,0.4,0.7,0.8l-2,23.4C189.4,240.4,189.1,240.7,188.7,240.7z"/>
		<path class="st14" d="M187.8,250.4L187.8,250.4c-0.4,0-0.7-0.4-0.7-0.8c0,0,0,0,0,0l0.4-4.3c0-0.4,0.4-0.7,0.8-0.7c0,0,0,0,0,0
			l0,0c0.4,0,0.7,0.4,0.7,0.8l-0.4,4.3C188.6,250.2,188.2,250.5,187.8,250.4z"/>
		<path class="st14" d="M127.5,254.3l-15.2-1.3c-0.4,0-0.7-0.4-0.7-0.8l0,0c0-0.4,0.4-0.7,0.8-0.7l15.2,1.3c0.4,0,0.7,0.4,0.7,0.8
			l0,0C128.3,254,127.9,254.3,127.5,254.3z"/>
		<path class="st14" d="M164.9,257.5l-30.7-2.7c-0.4,0-0.7-0.4-0.7-0.8c0,0,0,0,0,0l0,0c0-0.4,0.4-0.7,0.8-0.7c0,0,0,0,0,0l30.7,2.7
			c0.4,0,0.7,0.4,0.7,0.8c0,0,0,0,0,0l0,0C165.7,257.3,165.3,257.6,164.9,257.5C164.9,257.5,164.9,257.5,164.9,257.5z"/>
		<path class="st14" d="M173.5,258.3l-4.2-0.4c-0.4,0-0.7-0.4-0.7-0.8l0,0c0-0.4,0.4-0.7,0.8-0.7c0,0,0,0,0,0l4.2,0.4
			c0.4,0,0.7,0.4,0.7,0.8c0,0,0,0,0,0l0,0C174.3,258,173.9,258.3,173.5,258.3C173.5,258.3,173.5,258.3,173.5,258.3z"/>
	</g>
	<path class="st9" d="M111.4,176.3c-3.1,0.4-12.4-1.1-12.4-1.1l-2.1,24c0,0,9.4,0.1,12.4,1.1c0.9,0.5,1.8,1,2.6,1.6l2.3-26.7
		C113.3,175.7,112.4,176,111.4,176.3z"/>
	<path d="M110.2,200.7c0.8,0.5,1.8,1.1,1.8,1.1l2.3-26.7c0,0-1,0.5-1.9,0.8L110.2,200.7z"/>
	<path class="st9" d="M112.2,203.2L112.2,203.2c-0.7-0.1-1.2-0.7-1.2-1.4l2.3-26.8c0.1-0.7,0.7-1.2,1.4-1.2c0,0,0,0,0,0l0,0
		c0.7,0.1,1.2,0.7,1.2,1.4c0,0,0,0,0,0l-2.3,26.8C113.5,202.8,112.9,203.3,112.2,203.2C112.2,203.2,112.2,203.2,112.2,203.2z"/>
	<path class="st9" d="M110.8,182.1l-1.1,12.4l-8.5-3.6c-0.3-0.1-0.7-0.1-0.9,0.2c-1.1,1-2.5,1.4-3.9,1.3c-1,0-1.9-0.5-2.5-1.2
		c-1.1-1.4-0.9-3.8-0.6-5.9c0.3-2.1,2.2-3.5,4.2-3.3c1.3,0.2,2.6,0.9,3.4,1.9c0.2,0.3,0.5,0.4,0.9,0.3L110.8,182.1z M108.7,192.9
		l0.8-9.4l-7.5,1.7c-0.7,0.2-1.5-0.1-2-0.7c-0.7-0.8-1.6-1.4-2.7-1.5c-1.5-0.1-2.8,0.9-3,2.4c-0.3,1.8-0.5,3.9,0.4,5
		c0.4,0.5,1.1,0.8,1.7,0.8c1.1,0.1,2.2-0.3,3.1-1c0.6-0.5,1.4-0.7,2.1-0.4L108.7,192.9z"/>
	<g class="st15">
		<path class="st14" d="M110.8,182.1l-1.1,12.4l-8.5-3.6c-0.3-0.1-0.7-0.1-0.9,0.2c-1.1,1-2.5,1.4-3.9,1.3c-1,0-1.9-0.5-2.5-1.2
			c-1.1-1.4-0.9-3.8-0.6-5.9c0.3-2.1,2.2-3.5,4.2-3.3c1.3,0.2,2.6,0.9,3.4,1.9c0.2,0.3,0.5,0.4,0.9,0.3L110.8,182.1z M108.7,192.9
			l0.8-9.4l-7.5,1.7c-0.7,0.2-1.5-0.1-2-0.7c-0.7-0.8-1.6-1.4-2.7-1.5c-1.5-0.1-2.8,0.9-3,2.4c-0.3,1.8-0.5,3.9,0.4,5
			c0.4,0.5,1.1,0.8,1.7,0.8c1.1,0.1,2.2-0.3,3.1-1c0.6-0.5,1.4-0.7,2.1-0.4L108.7,192.9z"/>
	</g>
	<path class="st9" d="M135.1,142.6l-2-0.2l0.1-1.2l5.4,0.5l-0.1,1.2l-2-0.2l-0.4,5l-1.4-0.1L135.1,142.6z"/>
	<path class="st9" d="M145.1,142.3l-0.5,6.2l-1.4-0.1l0.2-2.5l-2.8-0.2l-0.2,2.5l-1.4-0.1l0.5-6.2l1.4,0.1l-0.2,2.4l2.8,0.2l0.2-2.4
		L145.1,142.3z"/>
	<path class="st9" d="M150.9,147.9l-0.1,1.1l-4.8-0.4l0.5-6.2l4.7,0.4l-0.1,1.1l-3.3-0.3l-0.1,1.3l2.9,0.3l-0.1,1.1l-2.9-0.2
		l-0.1,1.4L150.9,147.9z"/>
	<path class="st9" d="M152.6,149.1c-0.4-0.1-0.7-0.3-1.1-0.6l0.6-1c0.3,0.2,0.6,0.4,0.9,0.6c0.3,0.1,0.7,0.2,1.1,0.3
		c0.3,0,0.6,0,0.9-0.1c0.2-0.1,0.3-0.2,0.3-0.4c0-0.1,0-0.3-0.1-0.4c-0.1-0.1-0.3-0.2-0.4-0.3c-0.2-0.1-0.4-0.2-0.7-0.3
		c-0.4-0.1-0.8-0.3-1.1-0.4c-0.3-0.1-0.5-0.3-0.7-0.6c-0.2-0.3-0.3-0.6-0.2-1c0-0.3,0.2-0.7,0.4-0.9c0.3-0.3,0.6-0.5,1-0.6
		c0.5-0.1,1-0.2,1.5-0.1c0.4,0,0.8,0.1,1.1,0.2c0.4,0.1,0.7,0.3,1,0.5l-0.5,1c-0.5-0.4-1.1-0.6-1.7-0.6c-0.3,0-0.6,0-0.9,0.1
		c-0.2,0.1-0.3,0.3-0.3,0.5c0,0.2,0.1,0.4,0.3,0.5c0.3,0.2,0.7,0.3,1,0.4c0.4,0.1,0.8,0.3,1.1,0.4c0.3,0.1,0.5,0.3,0.7,0.6
		c0.2,0.3,0.3,0.6,0.2,1c0,0.4-0.1,0.7-0.4,1c-0.3,0.3-0.6,0.5-1,0.6c-0.5,0.1-1,0.2-1.5,0.1C153.5,149.4,153,149.3,152.6,149.1z"/>
	<path class="st9" d="M158.1,143.4l1.4,0.1l-0.5,6.2l-1.4-0.1L158.1,143.4z"/>
	<path class="st9" d="M161.1,149.8c-0.4-0.1-0.7-0.3-1.1-0.6l0.6-1c0.3,0.2,0.6,0.4,0.9,0.6c0.3,0.1,0.7,0.2,1.1,0.3
		c0.3,0.1,0.6,0,0.9-0.1c0.2-0.1,0.3-0.3,0.3-0.5c0-0.1,0-0.3-0.1-0.4c-0.1-0.1-0.3-0.2-0.4-0.3c-0.2-0.1-0.5-0.2-0.7-0.3
		c-0.4-0.1-0.8-0.3-1.1-0.4c-0.3-0.1-0.5-0.3-0.7-0.6c-0.2-0.3-0.3-0.6-0.2-1c0-0.3,0.2-0.7,0.4-0.9c0.2-0.3,0.6-0.5,0.9-0.6
		c0.5-0.1,1-0.2,1.5-0.1c0.4,0,0.8,0.1,1.1,0.2c0.4,0.1,0.7,0.3,1,0.5l-0.5,1c-0.5-0.4-1.1-0.6-1.7-0.6c-0.3,0-0.6,0-0.9,0.1
		c-0.2,0.1-0.3,0.3-0.3,0.5c0,0.2,0.1,0.4,0.3,0.5c0.3,0.2,0.7,0.3,1,0.4c0.4,0.1,0.8,0.3,1.1,0.4c0.3,0.1,0.5,0.3,0.7,0.6
		c0.2,0.3,0.3,0.6,0.2,1c0,0.4-0.2,0.7-0.4,1c-0.3,0.3-0.6,0.5-1,0.6c-0.5,0.1-1,0.2-1.5,0.1C162,150.1,161.6,150,161.1,149.8z"/>
	<path class="st9" d="M171.7,159.6l-47.1-4.1c-0.6-0.1-1.1-0.6-1-1.2l0,0c0.1-0.6,0.6-1.1,1.2-1l47.1,4.1c0.6,0.1,1.1,0.6,1,1.2
		c0,0,0,0,0,0l0,0C172.8,159.2,172.3,159.6,171.7,159.6C171.7,159.6,171.7,159.6,171.7,159.6z"/>
	<path class="st9" d="M164.9,165.9l-34.7-3c-0.6-0.1-1.1-0.6-1-1.2l0,0c0.1-0.6,0.6-1.1,1.2-1l34.7,3c0.6,0.1,1.1,0.6,1,1.2
		c0,0,0,0,0,0l0,0C166,165.5,165.5,165.9,164.9,165.9z"/>
	<path class="st9" d="M172.6,231.2c0,0.4-0.4,0.7-0.8,0.7c0,0,0,0,0,0l-59.9-5.2c-0.4,0-0.7-0.4-0.7-0.8c0,0,0,0,0,0l0,0
		c0-0.4,0.4-0.7,0.8-0.7c0,0,0,0,0,0l59.9,5.2C172.3,230.4,172.6,230.8,172.6,231.2C172.6,231.2,172.6,231.2,172.6,231.2
		L172.6,231.2z"/>
	<path class="st9" d="M165.8,237.5c0,0.4-0.4,0.7-0.8,0.7c0,0,0,0,0,0l-47.5-4.2c-0.4,0-0.7-0.4-0.7-0.8l0,0c0-0.4,0.4-0.7,0.8-0.7
		c0,0,0,0,0,0l47.5,4.1C165.5,236.7,165.8,237.1,165.8,237.5C165.8,237.5,165.8,237.5,165.8,237.5L165.8,237.5z"/>
	<circle class="st11" cx="144.8" cy="196.1" r="13.4"/>
	<path class="st9" d="M150.6,200.5c-0.1,0.9-2.9,1.5-6.3,1.2s-6.1-1.3-6-2.3l0.4-4.1l12.3,1.1L150.6,200.5z"/>
	<path class="st16" d="M138.6,196.4c0.5,0.9,3,1.7,6,2s5.7-0.1,6.3-0.9l0.1-1.2l-12.3-1.1L138.6,196.4z"/>
	<path class="st9" d="M144.5,198l-9.9-4c-0.1,0-0.2-0.2-0.2-0.3c0-0.1,0.1-0.1,0.2-0.2l10.5-3c0.1,0,0.1,0,0.2,0l9.8,4.8
		c0.1,0.1,0.2,0.2,0.1,0.3c0,0.1-0.1,0.1-0.1,0.1l-10.5,2.2C144.6,198,144.6,198,144.5,198z"/>
</g>
<g id="freepik--Device--inject-4">
	<path class="st9" d="M316.8,290.5l-14-31.1h-32.8l5,29.1c0.2,1.4-0.7,2.8-2.1,3h-0.4H258c-0.8,0-1.4,0.6-1.4,1.4v0l0,0v1.5
		c0,0.8,0.6,1.4,1.4,1.4h0h57.7c0.8,0,1.5-0.7,1.5-1.5c0,0,0,0,0,0v-1.6C317.2,292,317.1,291.2,316.8,290.5z M301.6,286.7h-15.8
		c-1,0-1.9-0.7-2.1-1.8l-2.4-13.7c-0.2-1.1,0.6-2.2,1.7-2.4c0,0,0,0,0,0h0.4h11.9c0.8,0,1.6,0.5,1.9,1.2l6.2,13.7
		c0.5,1.1,0,2.3-1.1,2.8C302.2,286.7,301.9,286.7,301.6,286.7L301.6,286.7z"/>
	<path class="st10" d="M316.8,290.5l-14-31.1h-32.8l5,29.1c0.2,1.4-0.7,2.8-2.1,3h-0.4H258c-0.8,0-1.4,0.6-1.4,1.4v0l0,0v1.5
		c0,0.8,0.6,1.4,1.4,1.4h0h57.7c0.8,0,1.5-0.7,1.5-1.5c0,0,0,0,0,0v-1.6C317.2,292,317.1,291.2,316.8,290.5z M301.6,286.7h-15.8
		c-1,0-1.9-0.7-2.1-1.8l-2.4-13.7c-0.2-1.1,0.6-2.2,1.7-2.4c0,0,0,0,0,0h0.4h11.9c0.8,0,1.6,0.5,1.9,1.2l6.2,13.7
		c0.5,1.1,0,2.3-1.1,2.8C302.2,286.7,301.9,286.7,301.6,286.7L301.6,286.7z"/>
	<path class="st17" d="M301.6,286.7h-15.8c-1,0-1.9-0.7-2.1-1.8l-2.4-13.7c-0.2-1.1,0.6-2.2,1.7-2.4c0,0,0,0,0,0h0.4h11.9
		c0.8,0,1.6,0.5,1.9,1.2l6.2,13.7c0.5,1.1,0,2.3-1.1,2.8C302.2,286.7,301.9,286.7,301.6,286.7L301.6,286.7z"/>
	<path class="st9" d="M285.3,268.7h-1.9c-1.2,0-2.1,0.9-2.1,2.1c0,0,0,0,0,0c0,0.1,0,0.2,0,0.4l2.4,13.7c0.2,1,1,1.7,2.1,1.7h1.9
		c-1,0-1.9-0.7-2.1-1.7l-2.4-13.7c-0.2-1.1,0.6-2.2,1.7-2.4c0,0,0,0,0,0C285.1,268.7,285.2,268.7,285.3,268.7z"/>
	<path class="st9" d="M318.6,290.5l-14-31.1h-1.9l14,31.1c0.3,0.7,0.5,1.5,0.5,2.3v1.6c0,0.8-0.7,1.5-1.5,1.5h1.9
		c0.8,0,1.5-0.7,1.5-1.5v-1.6C319.1,292,319,291.2,318.6,290.5z"/>
	<polygon class="st18" points="302.7,259.4 269.9,259.4 271.2,266.8 306.1,266.8 	"/>
	<path class="st9" d="M349.8,262.7H209.9c-2.5,0-4.6-2-4.7-4.5c0-0.2,0-0.4,0-0.6l8.8-101.1c0.3-2.9,2.7-5.1,5.6-5.1h139.9
		c2.5-0.1,4.6,2,4.7,4.5c0,0,0,0,0,0c0,0.2,0,0.4,0,0.6l-8.9,101.1C355.1,260.4,352.7,262.6,349.8,262.7z"/>
	<path class="st11" d="M206.2,246.6l-1,10.9c-0.3,2.5,1.5,4.8,4,5.1c0,0,0,0,0,0c0.2,0,0.4,0,0.6,0h139.9c2.9,0,5.3-2.2,5.6-5.1
		l1-10.9L206.2,246.6z"/>
	<path class="st19" d="M206.2,246.6l-1,10.9c-0.3,2.5,1.5,4.8,4,5.1c0,0,0,0,0,0c0.2,0,0.4,0,0.6,0h139.9c2.9,0,5.3-2.2,5.6-5.1
		l1-10.9L206.2,246.6z"/>
	<path class="st11" d="M351.3,243.5H211.6c-1.4,0-2.5-1.1-2.5-2.4c0,0,0,0,0,0c0-0.1,0-0.2,0-0.3l7.3-83.6c0.2-1.5,1.4-2.7,3-2.8
		h139.7c1.4,0,2.5,1.1,2.5,2.4c0,0,0,0,0,0c0,0.1,0,0.2,0,0.3l-7.3,83.6C354.2,242.3,352.9,243.5,351.3,243.5z"/>
	<path class="st20" d="M351.3,243.5H211.6c-1.4,0-2.5-1.1-2.5-2.4c0,0,0,0,0,0c0-0.1,0-0.2,0-0.3l7.3-83.6c0.2-1.5,1.4-2.7,3-2.8
		h139.7c1.4,0,2.5,1.1,2.5,2.4c0,0,0,0,0,0c0,0.1,0,0.2,0,0.3l-7.3,83.6C354.2,242.3,352.9,243.5,351.3,243.5z"/>
	<path class="st11" d="M362.6,151.4h-3.1c2.5-0.1,4.6,2,4.7,4.5c0,0,0,0,0,0c0,0.2,0,0.4,0,0.6l-8.9,101.1c-0.3,2.9-2.7,5.1-5.6,5.1
		h3.1c2.9,0,5.3-2.3,5.5-5.1l8.9-101.1c0.3-2.5-1.5-4.8-4.1-5.1c0,0,0,0,0,0L362.6,151.4z"/>
	<path class="st17" d="M362.6,151.4h-3.1c2.5-0.1,4.6,2,4.7,4.5c0,0,0,0,0,0c0,0.2,0,0.4,0,0.6l-8.9,101.1c-0.3,2.9-2.7,5.1-5.6,5.1
		h3.1c2.9,0,5.3-2.3,5.5-5.1l8.9-101.1c0.3-2.5-1.5-4.8-4.1-5.1c0,0,0,0,0,0L362.6,151.4z"/>
	<polygon class="st11" points="246.2,242.9 310.3,242.9 317.7,158.8 253.6,158.8 	"/>
	<polygon class="st19" points="246.2,242.9 310.3,242.9 317.7,158.8 253.6,158.8 	"/>
	<path class="st9" d="M269.4,169.6h32.3c0.4,0,0.8-0.3,0.8-0.8l0,0c0-0.4-0.2-0.7-0.6-0.7c0,0,0,0-0.1,0h-32.3
		c-0.4,0-0.8,0.3-0.8,0.8l0,0C268.6,169.2,268.9,169.6,269.4,169.6C269.3,169.6,269.3,169.6,269.4,169.6z"/>
	<path class="st9" d="M258.5,210.8H298c0.4,0,0.8-0.3,0.8-0.8l0,0c0-0.4-0.2-0.7-0.6-0.7c0,0,0,0-0.1,0h-39.5
		c-0.4,0-0.8,0.3-0.8,0.8l0,0C257.8,210.4,258,210.7,258.5,210.8C258.4,210.8,258.5,210.8,258.5,210.8z"/>
	<path class="st9" d="M258.1,215.2h45.2c0.4,0,0.8-0.3,0.8-0.8l0,0c0-0.4-0.2-0.7-0.6-0.7c0,0-0.1,0-0.1,0h-45.2
		c-0.4,0-0.8,0.3-0.8,0.8l0,0C257.4,214.8,257.7,215.1,258.1,215.2C258.1,215.2,258.1,215.2,258.1,215.2z"/>
	<path class="st9" d="M257.7,219.6h45.2c0.4,0,0.8-0.3,0.8-0.8l0,0c0-0.4-0.2-0.7-0.6-0.8c0,0-0.1,0-0.1,0h-45.2
		c-0.4,0-0.8,0.3-0.8,0.8l0,0C257,219.2,257.3,219.5,257.7,219.6C257.7,219.6,257.7,219.6,257.7,219.6z"/>
	<path class="st9" d="M257.3,224h45.2c0.4,0,0.8-0.3,0.8-0.8l0,0c0-0.4-0.2-0.7-0.6-0.8c0,0-0.1,0-0.1,0h-45.2
		c-0.4,0-0.8,0.3-0.8,0.8l0,0C256.6,223.6,256.9,224,257.3,224C257.3,224,257.3,224,257.3,224z"/>
	<path class="st9" d="M257,228.4h39.5c0.4,0,0.8-0.3,0.8-0.8l0,0c0-0.4-0.2-0.7-0.6-0.8c0,0,0,0-0.1,0h-39.6c-0.4,0-0.8,0.3-0.8,0.8
		l0,0c0,0.4,0.2,0.7,0.6,0.8C256.9,228.4,257,228.4,257,228.4z"/>
	<path class="st9" d="M256.6,232.8h45.2c0.4,0,0.8-0.3,0.8-0.8l0,0c0-0.4-0.2-0.7-0.6-0.8c0,0-0.1,0-0.1,0h-45.2
		c-0.4,0-0.8,0.3-0.8,0.8l0,0C255.8,232.4,256.1,232.7,256.6,232.8C256.5,232.8,256.5,232.8,256.6,232.8z"/>
	<path class="st9" d="M256.2,237.2h45.2c0.4,0,0.8-0.3,0.8-0.8l0,0c0-0.4-0.2-0.7-0.6-0.8c0,0-0.1,0-0.1,0h-45.2
		c-0.4,0-0.8,0.3-0.8,0.8l0,0C255.5,236.8,255.7,237.1,256.2,237.2C256.1,237.2,256.2,237.2,256.2,237.2z"/>
	<path class="st9" d="M272.7,174.6h24.7c0.4,0,0.8-0.3,0.8-0.8l0,0c0-0.4-0.2-0.7-0.6-0.8c0,0-0.1,0-0.1,0h-24.7
		c-0.4,0-0.8,0.3-0.8,0.8l0,0C272,174.3,272.2,174.6,272.7,174.6C272.6,174.6,272.7,174.7,272.7,174.6z"/>
	<path class="st9" d="M276.3,179.7H293c0.4,0,0.8-0.3,0.8-0.8l0,0c0-0.4-0.2-0.7-0.6-0.8c0,0-0.1,0-0.1,0h-16.7
		c-0.4,0-0.8,0.3-0.8,0.8l0,0C275.6,179.3,275.8,179.6,276.3,179.7C276.2,179.7,276.3,179.7,276.3,179.7z"/>
	<g class="st13">
		<path class="st14" d="M269.4,169.6h32.3c0.4,0,0.8-0.3,0.8-0.8l0,0c0-0.4-0.2-0.7-0.6-0.7c0,0,0,0-0.1,0h-32.3
			c-0.4,0-0.8,0.3-0.8,0.8l0,0C268.6,169.2,268.9,169.6,269.4,169.6C269.3,169.6,269.3,169.6,269.4,169.6z"/>
		<path class="st14" d="M258.5,210.8H298c0.4,0,0.8-0.3,0.8-0.8l0,0c0-0.4-0.2-0.7-0.6-0.7c0,0,0,0-0.1,0h-39.5
			c-0.4,0-0.8,0.3-0.8,0.8l0,0C257.8,210.4,258,210.7,258.5,210.8C258.4,210.8,258.5,210.8,258.5,210.8z"/>
		<path class="st14" d="M258.1,215.2h45.2c0.4,0,0.8-0.3,0.8-0.8l0,0c0-0.4-0.2-0.7-0.6-0.7c0,0-0.1,0-0.1,0h-45.2
			c-0.4,0-0.8,0.3-0.8,0.8l0,0C257.4,214.8,257.7,215.1,258.1,215.2C258.1,215.2,258.1,215.2,258.1,215.2z"/>
		<path class="st14" d="M257.7,219.6h45.2c0.4,0,0.8-0.3,0.8-0.8l0,0c0-0.4-0.2-0.7-0.6-0.8c0,0-0.1,0-0.1,0h-45.2
			c-0.4,0-0.8,0.3-0.8,0.8l0,0C257,219.2,257.3,219.5,257.7,219.6C257.7,219.6,257.7,219.6,257.7,219.6z"/>
		<path class="st14" d="M257.3,224h45.2c0.4,0,0.8-0.3,0.8-0.8l0,0c0-0.4-0.2-0.7-0.6-0.8c0,0-0.1,0-0.1,0h-45.2
			c-0.4,0-0.8,0.3-0.8,0.8l0,0C256.6,223.6,256.9,224,257.3,224C257.3,224,257.3,224,257.3,224z"/>
		<path class="st14" d="M257,228.4h39.5c0.4,0,0.8-0.3,0.8-0.8l0,0c0-0.4-0.2-0.7-0.6-0.8c0,0,0,0-0.1,0h-39.6
			c-0.4,0-0.8,0.3-0.8,0.8l0,0c0,0.4,0.2,0.7,0.6,0.8C256.9,228.4,257,228.4,257,228.4z"/>
		<path class="st14" d="M256.6,232.8h45.2c0.4,0,0.8-0.3,0.8-0.8l0,0c0-0.4-0.2-0.7-0.6-0.8c0,0-0.1,0-0.1,0h-45.2
			c-0.4,0-0.8,0.3-0.8,0.8l0,0C255.8,232.4,256.1,232.7,256.6,232.8C256.5,232.8,256.5,232.8,256.6,232.8z"/>
		<path class="st14" d="M256.2,237.2h45.2c0.4,0,0.8-0.3,0.8-0.8l0,0c0-0.4-0.2-0.7-0.6-0.8c0,0-0.1,0-0.1,0h-45.2
			c-0.4,0-0.8,0.3-0.8,0.8l0,0C255.5,236.8,255.7,237.1,256.2,237.2C256.1,237.2,256.2,237.2,256.2,237.2z"/>
		<path class="st14" d="M272.7,174.6h24.7c0.4,0,0.8-0.3,0.8-0.8l0,0c0-0.4-0.2-0.7-0.6-0.8c0,0-0.1,0-0.1,0h-24.7
			c-0.4,0-0.8,0.3-0.8,0.8l0,0C272,174.3,272.2,174.6,272.7,174.6C272.6,174.6,272.7,174.7,272.7,174.6z"/>
		<path class="st14" d="M276.3,179.7H293c0.4,0,0.8-0.3,0.8-0.8l0,0c0-0.4-0.2-0.7-0.6-0.8c0,0-0.1,0-0.1,0h-16.7
			c-0.4,0-0.8,0.3-0.8,0.8l0,0C275.6,179.3,275.8,179.6,276.3,179.7C276.2,179.7,276.3,179.7,276.3,179.7z"/>
	</g>
	<polygon class="st10" points="258.4,203.4 305.1,203.4 306.6,185.5 260,185.5 	"/>
</g>
<g id="freepik--graduation-cap--inject-4">
	<rect x="207.2" y="257.2" class="st9" width="40.9" height="38.6"/>
	<rect x="167.2" y="257.2" class="st9" width="40.9" height="38.6"/>
	<rect x="206.8" y="255.7" class="st9" width="41.3" height="5.4"/>
	<rect x="206.8" y="251.8" class="st9" width="73.9" height="6.2"/>
	<rect x="167.2" y="257.2" class="st18" width="40.9" height="38.6"/>
	<rect x="206.8" y="255.7" class="st18" width="41.3" height="5.4"/>
	<rect x="206.8" y="251.8" class="st18" width="73.9" height="6.2"/>
	<rect x="134.6" y="251.8" class="st9" width="73.9" height="6.2"/>
	<path class="st11" d="M134.7,317.6L134.7,317.6c0.6,0,1-0.4,1-1V256c0-1.8,1.4-3.2,3.2-3.2c0,0,0,0,0,0h68.7c0.6,0,1-0.4,1-1l0,0
		c0-0.6-0.4-1-1-1h-68.7c-2.9,0-5.2,2.3-5.2,5.2v60.6C133.7,317.2,134.1,317.6,134.7,317.6z"/>
	<path class="st11" d="M134.4,320.2c3.7,0,6.7,4.8,6.7,10.7v7.6h-3.3c-0.4,0-2.4-0.4-2.4-7.7c0,0-1.1,7.7,0.7,7.7h-2.8
		c0,0-1.7-0.3-1.7-4.4V328c0,0-2.7,10.5,0,10.5h-3.9v-7.6C127.8,325,130.8,320.2,134.4,320.2z"/>
	<path class="st11" d="M132.2,318.6h4.5c0.6,0,1-0.4,1-1l0,0c0-0.6-0.4-1-1-1h-4.5c-0.6,0-1,0.4-1,1l0,0
		C131.2,318.2,131.6,318.6,132.2,318.6z"/>
	<path class="st11" d="M132.2,320.6h4.5c0.6,0,1-0.4,1-1l0,0c0-0.6-0.4-1-1-1h-4.5c-0.6,0-1,0.4-1,1l0,0
		C131.2,320.2,131.6,320.6,132.2,320.6z"/>
</g>
<g id="freepik--Books--inject-4">
	<path class="st11" d="M344.5,374.9H162.3v38h182.3C342.9,400.3,342.9,387.5,344.5,374.9z"/>
	<path class="st19" d="M344.5,374.9H162.3v38h182.3C342.9,400.3,342.9,387.5,344.5,374.9z"/>
	<path class="st11" d="M195.5,414.9h-57.3l-0.6-0.6c-11.4-11.4-11.4-29.9,0-41.3c0,0,0,0,0,0l0.6-0.6h57.3l-3.4,3.4
		c-9.8,9.8-9.8,25.8,0,35.6L195.5,414.9z"/>
	<g class="st21">
		<path d="M195.5,414.9h-57.3l-0.6-0.6c-11.4-11.4-11.4-29.9,0-41.3c0,0,0,0,0,0l0.6-0.6h57.3l-3.4,3.4c-9.8,9.8-9.8,25.8,0,35.6
			L195.5,414.9z"/>
	</g>
	<path class="st11" d="M346.4,414.9H191.7l-0.2-0.2c-5.4-5.3-8.6-12.4-9-20c-0.3-8.1,2.8-16,8.6-21.7l0.6-0.6h154.7c1.1,0,2,0.9,2,2
		l0,0c0,1.1-0.9,2-2,2h-153c-9.1,9.7-9.1,24.8,0,34.5h153c1.1,0,2,0.9,2,2l0,0C348.4,414,347.5,414.9,346.4,414.9z"/>
	<path class="st14" d="M330.2,389h-8.8c-0.8,0-1.5-0.7-1.5-1.5l0,0c0-0.8,0.7-1.5,1.5-1.5h8.8c0.8,0,1.5,0.7,1.5,1.5l0,0
		C331.7,388.3,331,389,330.2,389z"/>
	<path class="st14" d="M310,389h-81.3c-0.8,0-1.5-0.7-1.5-1.5l0,0c0-0.8,0.7-1.5,1.5-1.5H310c0.8,0,1.5,0.7,1.5,1.5l0,0
		C311.5,388.3,310.8,389,310,389z"/>
	<path class="st14" d="M217.7,389h-18c-0.8,0-1.5-0.7-1.5-1.5l0,0c0-0.8,0.7-1.5,1.5-1.5h18c0.8,0,1.5,0.7,1.5,1.5l0,0
		C219.2,388.3,218.5,389,217.7,389z"/>
	<path class="st14" d="M330.2,401.7h-77c-0.8,0-1.5-0.7-1.5-1.5l0,0c0-0.8,0.7-1.5,1.5-1.5h77c0.8,0,1.5,0.7,1.5,1.5l0,0
		C331.7,401,331,401.7,330.2,401.7z"/>
	<path class="st14" d="M242,401.7h-42.3c-0.8,0-1.5-0.7-1.5-1.5l0,0c0-0.8,0.7-1.5,1.5-1.5H242c0.8,0,1.5,0.7,1.5,1.5l0,0
		C243.5,401,242.8,401.7,242,401.7z"/>
	<path class="st11" d="M339.7,298.2h-164v34.2h164.1C338.3,321,338.2,309.5,339.7,298.2z"/>
	<path class="st22" d="M339.7,298.2h-164v34.2h164.1C338.3,321,338.2,309.5,339.7,298.2z"/>
	<path class="st11" d="M205.6,334.2H154l-0.5-0.5c-10.3-10.3-10.3-26.9,0-37.2c0,0,0,0,0,0l0.5-0.5h51.5l-3.1,3.1
		c-8.9,8.9-8.9,23.2,0,32.1L205.6,334.2z"/>
	<g class="st23">
		<path class="st14" d="M205.6,334.2H154l-0.5-0.5c-10.3-10.3-10.3-26.9,0-37.2c0,0,0,0,0,0l0.5-0.5h51.5l-3.1,3.1
			c-8.9,8.9-8.9,23.2,0,32.1L205.6,334.2z"/>
	</g>
	<path class="st11" d="M341.4,334.2H202.1L202,334c-4.9-4.8-7.7-11.2-8.1-18c-0.3-7.3,2.5-14.4,7.7-19.5l0.5-0.5h139.2
		c1,0,1.8,0.8,1.8,1.8l0,0c0,1-0.8,1.8-1.8,1.8H203.6c-8.2,8.7-8.2,22.3,0,31h137.7c1,0,1.8,0.8,1.8,1.8l0,0
		C343.2,333.3,342.4,334.2,341.4,334.2C341.4,334.2,341.4,334.2,341.4,334.2z"/>
	<g class="st13">
		<path class="st14" d="M341.4,334.2H202.1L202,334c-4.9-4.8-7.7-11.2-8.1-18c-0.3-7.3,2.5-14.4,7.7-19.5l0.5-0.5h139.2
			c1,0,1.8,0.8,1.8,1.8l0,0c0,1-0.8,1.8-1.8,1.8H203.6c-8.2,8.7-8.2,22.3,0,31h137.7c1,0,1.8,0.8,1.8,1.8l0,0
			C343.2,333.3,342.4,334.2,341.4,334.2C341.4,334.2,341.4,334.2,341.4,334.2z"/>
	</g>
	<path class="st14" d="M326.8,310.9h-7.9c-0.7,0-1.4-0.6-1.4-1.4l0,0l0,0c0-0.7,0.6-1.4,1.4-1.4l0,0h7.9c0.7,0,1.4,0.6,1.4,1.4l0,0
		l0,0C328.1,310.3,327.5,310.9,326.8,310.9L326.8,310.9z"/>
	<path class="st14" d="M308.6,310.9h-73.1c-0.7,0-1.3-0.6-1.4-1.3c0,0,0,0,0,0l0,0c0-0.7,0.6-1.3,1.3-1.4c0,0,0,0,0,0h73.1
		c0.7,0,1.3,0.6,1.4,1.3c0,0,0,0,0,0l0,0C309.9,310.3,309.3,310.9,308.6,310.9C308.6,310.9,308.6,310.9,308.6,310.9z"/>
	<path class="st14" d="M225.6,310.9h-16.2c-0.7,0-1.3-0.6-1.4-1.3c0,0,0,0,0,0l0,0c0-0.7,0.6-1.3,1.3-1.4c0,0,0,0,0,0h16.2
		c0.7,0,1.3,0.6,1.4,1.3c0,0,0,0,0,0l0,0C226.9,310.3,226.3,310.9,225.6,310.9C225.6,310.9,225.6,310.9,225.6,310.9z"/>
	<path class="st14" d="M326.8,322.3h-69.3c-0.7,0-1.3-0.6-1.4-1.3c0,0,0,0,0,0l0,0c0-0.7,0.6-1.3,1.3-1.4c0,0,0,0,0,0h69.3
		c0.7,0,1.4,0.6,1.4,1.4l0,0l0,0C328.1,321.7,327.5,322.3,326.8,322.3L326.8,322.3z"/>
	<path class="st14" d="M247.4,322.3h-38c-0.7,0-1.4-0.6-1.4-1.3c0,0,0,0,0,0l0,0c0-0.7,0.6-1.3,1.3-1.4c0,0,0,0,0,0h38
		c0.7,0,1.3,0.6,1.4,1.3c0,0,0,0,0,0l0,0C248.7,321.7,248.1,322.3,247.4,322.3z"/>
	<path class="st11" d="M345.4,336.4h-164v34.2h164.1C344,359.2,344,347.8,345.4,336.4z"/>
	<path class="st19" d="M345.4,336.4h-164v34.2h164.1C344,359.2,344,347.8,345.4,336.4z"/>
	<path class="st11" d="M211.3,372.4h-51.6l-0.5-0.5c-10.3-10.3-10.3-26.9,0-37.2c0,0,0,0,0,0l0.5-0.5h51.6l-3.1,3.1
		c-8.9,8.9-8.9,23.2,0,32.1c0,0,0,0,0,0L211.3,372.4z"/>
	<path class="st11" d="M347.1,372.4H207.9l-0.1-0.1c-4.9-4.8-7.7-11.2-8.1-18c-0.3-7.3,2.5-14.4,7.7-19.5l0.5-0.5h139.2
		c1,0,1.8,0.8,1.8,1.8l0,0c0,1-0.8,1.8-1.8,1.8H209.4c-8.2,8.7-8.2,22.3,0,31h137.7c1,0,1.8,0.8,1.8,1.8l0,0
		C348.9,371.6,348.1,372.4,347.1,372.4z"/>
	<g class="st21">
		<path class="st14" d="M347.1,372.4H207.9l-0.1-0.1c-4.9-4.8-7.7-11.2-8.1-18c-0.3-7.3,2.5-14.4,7.7-19.5l0.5-0.5h139.2
			c1,0,1.8,0.8,1.8,1.8l0,0c0,1-0.8,1.8-1.8,1.8H209.4c-8.2,8.7-8.2,22.3,0,31h137.7c1,0,1.8,0.8,1.8,1.8l0,0
			C348.9,371.6,348.1,372.4,347.1,372.4z"/>
	</g>
	<path class="st14" d="M215.1,357.9h7.9c0.7,0,1.4,0.6,1.4,1.4l0,0l0,0c0,0.7-0.6,1.3-1.4,1.4h-7.9c-0.7,0-1.3-0.6-1.4-1.4l0,0
		C213.8,358.5,214.4,357.9,215.1,357.9L215.1,357.9z"/>
	<path class="st14" d="M233.4,357.9h73.1c0.7,0,1.3,0.6,1.4,1.3c0,0,0,0,0,0l0,0c0,0.7-0.6,1.4-1.4,1.4l0,0h-73.1
		c-0.7,0-1.4-0.6-1.4-1.4l0,0l0,0C232,358.5,232.6,357.9,233.4,357.9C233.3,357.8,233.3,357.8,233.4,357.9z"/>
	<path class="st14" d="M316.4,357.9h16.2c0.7,0,1.3,0.6,1.4,1.3c0,0,0,0,0,0l0,0c0,0.7-0.6,1.4-1.4,1.4l0,0h-16.2
		c-0.8,0-1.4-0.6-1.4-1.3c0,0,0,0,0,0l0,0C315,358.5,315.6,357.8,316.4,357.9C316.4,357.8,316.4,357.8,316.4,357.9z"/>
	<path class="st14" d="M215.1,346.5h69.3c0.7,0,1.3,0.6,1.4,1.3c0,0,0,0,0,0l0,0c0,0.7-0.6,1.4-1.4,1.4l0,0h-69.3
		c-0.7,0-1.3-0.6-1.4-1.4l0,0C213.8,347.1,214.4,346.5,215.1,346.5C215.1,346.5,215.1,346.5,215.1,346.5z"/>
	<path class="st14" d="M294.5,346.5h38c0.7,0,1.3,0.6,1.4,1.3c0,0,0,0,0,0l0,0c0,0.7-0.6,1.4-1.4,1.4l0,0h-38
		c-0.7,0-1.4-0.6-1.4-1.4l0,0l0,0C293.2,347.1,293.8,346.5,294.5,346.5C294.5,346.4,294.5,346.4,294.5,346.5z"/>
</g>
<g id="freepik--Character--inject-4">
	<path class="st9" d="M317.4,285c0.1-4.2,5.4-5.8,5.4-5.8s-0.1-0.4-0.3-1c0,0,0.5,0.6,3.2-0.6s3.6-1.7,3.6-1.7
		c-1.7,0.3-3.4,0.9-5,1.6c-0.7,0.4-1.7,0.2-2.1-0.6c0,0-0.1-0.1-0.1-0.1c-0.2-0.5-0.5-3.1,0.7-1.9c2.3,2.1,15.4-5.9,19.9-0.8
		s-3.5,6.5-3.5,6.5c-7.9,2.2-12.6,8.4-14.7,11.8c-0.9,1.4-1.8,0.3-1.9-0.1c-0.5-1.4-0.2-2.1,2.7-5.5c0,0-1.7,0.8-3.4,4.1
		c-0.5-1-0.9-1.7-1.6-0.7s-1.6,1.1-2,0.2c-0.1-0.2-0.4-1.8,2.2-4.9c-1.4,0.5-2.5,1.7-2.8,3.1C317.4,287.4,317.4,286.2,317.4,285z"/>
	<path class="st11" d="M341.3,280c0,0,1.1-4.7-5.9-2.4s-2.8,5.1-2.8,5.1L341.3,280z"/>
	<path class="st18" d="M341.3,280c0,0,1.1-4.7-5.9-2.4s-2.8,5.1-2.8,5.1L341.3,280z"/>
	<path class="st11" d="M343.2,281.9c0,0,1.4-5.6-7.1-2.8s-3.4,6.2-3.4,6.2L343.2,281.9z"/>
	<path class="st9" d="M340.2,317.7c0,0,2.4-5.9-9.5-8.1s-14.2,0.4-10.7,4.8l4.8,3.3l9.8,3.2l4.2-1.8L340.2,317.7z"/>
	<path class="st18" d="M340.2,317.7c0,0,2.4-5.9-9.5-8.1s-14.2,0.4-10.7,4.8l4.8,3.3l9.8,3.2l4.2-1.8L340.2,317.7z"/>
	<path class="st11" d="M297.9,357.5c-18.3,42.3,4.9,58.8,34,57.8s81.4-17.1,74.2-37.4c-5.8-16.3-53.4-9-68.2-5.6l-7.5-11.8
		L297.9,357.5z"/>
	<path class="st18" d="M297.9,357.5c-18.3,42.3,4.9,58.8,34,57.8s81.4-17.1,74.2-37.4c-5.8-16.3-53.4-9-68.2-5.6l-7.5-11.8
		L297.9,357.5z"/>
	<polygon class="st24" points="368.6,405.2 355,408.1 349.5,409.2 348,403 353.7,400.9 365.7,396.7 	"/>
	<polygon class="st18" points="368.6,405.2 355,408.1 353.7,400.9 365.7,396.7 	"/>
	<polygon class="st11" points="354.4,399.7 358.3,397.6 360.6,409.4 357.1,409.1 	"/>
	<polygon class="st25" points="354.4,399.7 358.3,397.6 360.6,409.4 357.1,409.1 	"/>
	<path class="st26" d="M337.9,372.4c0,0,62.3-9,59.2,2.5c-2.4,8.8-28.1,19.5-28.1,19.5c-24-11.7-43.8-11.3-43.8-11.3L337.9,372.4z"
		/>
	<path class="st9" d="M299.6,346.2c1.6-10,4.4-24,7.9-30c0.5-1.1,1.3-2,2.3-2.6c0,0,1.4-0.1,3.8-0.1h0.2c8.4,0.1,16.8,1.5,24.8,4.2
		c2.8,0.9,5.5,2,8.1,3.3c0,0-3.5,20.9-7.4,25s-9,14.6-9,14.6l-32.5-3C297.9,357.5,298.5,352.7,299.6,346.2z"/>
	<path class="st24" d="M336,311.3c0.6-1.3,1.2-2.6,1.9-3.8l-8.7-5.5c0,0.8,0,1.6,0,2.4c-0.2,3-1.2,8.2-5.9,10c0,0,2,7.7,8.4,8.3
		c0.3,0,0.7,0,1,0c2.2-0.4,3.8-2.5,3.4-4.7c0,0,0,0,0,0c0,0-1.1-0.5-1.2-2.5C335,314.1,335.4,312.6,336,311.3z"/>
	<path class="st18" d="M328.2,302.3c0.1,0.8,0.2,1.6,0.2,2.4v0.1c0,0,1.9,10.8,6.8,10.4c-0.1-1.5,0.1-2.9,0.5-4.3
		c0.4-1.4,0.9-2.7,1.5-4L328.2,302.3z"/>
	<path class="st24" d="M335.2,314.3c9.7,3.9,14.5-1.5,17-12.5c2-8.8,0.7-14.1-7.7-16.7C330.6,281,321.9,306.9,335.2,314.3z"/>
	<path class="st27" d="M345.5,306.8c0.8,0.4,1.8,0.3,2.5-0.3c-0.6-1.3-1.1-2.8-1.4-4.2L345.5,306.8z"/>
	<path class="st9" d="M341.8,299.3c0.2-0.6,0.6-1,1-1l0,0l1.7-0.2c-0.3,0.3-0.7,0.5-1.1,0.5c0.2,0.4,0.2,0.8,0.1,1.2
		c-0.2,0.7-0.7,1.1-1.2,1S341.6,300,341.8,299.3z"/>
	<path class="st9" d="M349.5,301.5c0.2-0.6,0.6-1,1-1l1.6-0.2c-0.3,0.3-0.7,0.5-1.1,0.5c0.2,0.4,0.2,0.8,0.1,1.2
		c-0.2,0.7-0.7,1.1-1.2,1S349.3,302.2,349.5,301.5z"/>
	<path class="st9" d="M341.4,294.8L341.4,294.8c0-0.2,0.1-0.4,0.3-0.4c0,0,0,0,0,0c1.5,0,3,0.8,3.9,2c0.1,0.2,0.1,0.4-0.1,0.5
		s-0.4,0.1-0.5-0.1c-0.8-1-2-1.7-3.2-1.7c-0.1,0-0.1,0-0.2,0C341.5,295.1,341.4,295,341.4,294.8z"/>
	<path class="st9" d="M353,298.7c-0.9-0.7-2.1-0.8-3.2-0.5l0,0c-0.2,0.1-0.4,0-0.5-0.2l0,0c-0.1-0.2,0-0.4,0.2-0.5
		c1.3-0.4,2.7-0.2,3.9,0.5l0,0c0.2,0.1,0.2,0.3,0.1,0.5c0,0,0,0,0,0c0,0.1-0.1,0.1-0.2,0.1C353.2,298.7,353.1,298.7,353,298.7z"/>
	<path class="st9" d="M329.1,306.4c-5.5-8.5,0.8-29.6,15.1-24.9s8.1,19.2,8.1,19.2c2.5-9.9-1.6-11.4-6.4-12.6
		c-3.3-0.9-6.8,0.6-8.4,3.6c-1.4,2.4-3.8,4.1-6.5,4.9C327.3,300.1,329.2,306.4,329.1,306.4z"/>
	<path class="st28" d="M343.2,309c-1.4,0-2.6-1-2.8-2.4c0-0.1,0.1-0.2,0.2-0.2c0,0,0,0,0,0c0.1,0,0.2,0.1,0.2,0.2
		c0.2,1.2,1.2,2,2.4,2c0.1,0,0.2,0.1,0.2,0.2C343.4,308.9,343.4,309,343.2,309L343.2,309z"/>
	<path class="st24" d="M342.5,335.2c0,0,2.9,19.1,4.8,22.8s13.9,16,13.9,16l3.2-1.7c0,0-11.3-14.1-12.1-16.7s-3.3-24.8-3.3-24.8
		L342.5,335.2z"/>
	<path class="st9" d="M340.5,333.6l1.5-8.3l4.7-4.4c3.5,1.9,4.2,12.8,4.3,17.3c0.1,3.9,0.2,12.8,1.7,16.6c1.7,4.4,11,15.4,11,15.4
		l-4.4,3.1c0,0-11-9.2-14.1-16.4S340.5,333.6,340.5,333.6z"/>
	<path class="st11" d="M348.8,410.7c0-0.1,0.1-0.1,0.2-0.1c0.1,0,0.1,0.1,0.2,0.1c0,0.1,1,3.1,0.4,4.4c-0.1,0.2-0.3,0.4-0.6,0.5
		c-0.3,0.1-0.6,0.1-0.8-0.1c-0.3-0.8-0.4-1.6-0.1-2.4C348.2,412.2,348.5,411.4,348.8,410.7z M349.3,414.5c0.1-1.1-0.1-2.2-0.5-3.2
		c-0.5,1.4-0.9,3.4-0.4,3.8c0,0.1,0.2,0.1,0.4,0c0.2,0,0.3-0.2,0.3-0.3C349.3,414.8,349.3,414.6,349.3,414.5L349.3,414.5z"/>
	<path class="st11" d="M348.8,410.6c0-0.1,0.1-0.1,0.2-0.1c0.1,0,2.1,0.7,2.8,1.8c0.2,0.3,0.2,0.7,0.1,1.1c-0.1,0.5-0.4,0.6-0.7,0.6
		c-0.9,0-2.2-2.2-2.4-3.2L348.8,410.6C348.8,410.7,348.8,410.6,348.8,410.6z M351.5,413.2c0-0.2,0-0.5-0.1-0.7
		c-0.6-0.7-1.3-1.2-2.2-1.5c0.4,1,1.5,2.6,2,2.6c0.1,0,0.2,0,0.3-0.3L351.5,413.2L351.5,413.2z"/>
	<path class="st9" d="M349,411.8c-2.7,2-4.7,2.2-6.7,8.2c-0.5,1.3-3.9,0-3.2-3.1c1.1-5.2,1.4-4,2.4-8.5c0.8-3.8,1.2-6.5,1.8-9.6
		l0.1-0.2l0,0c0.2-0.6,0.9-0.9,1.5-0.6c0,0,0,0,0,0l6.6,2.9c0.3,0.1,0.5,0.5,0.4,0.8l-1.7,8.5C349.9,410.8,349.5,411.4,349,411.8z"
		/>
	<polygon class="st24" points="375.5,401.4 388.8,405.5 394.2,407.1 392.5,413.3 386.5,412.3 374,410.3 	"/>
	<polygon class="st18" points="375.5,401.4 388.8,405.5 386.5,412.3 374,410.3 	"/>
	<path class="st11" d="M384.6,412.1c-28-2.4-60.1-12.8-60.1-12.8s-5.2-5.1-6.5-1.4s7.8,16.5,7.8,16.5s-13.4-2.4-20.7-12.1
		s-4.7-25.2,12.9-26s68.6,27.8,68.6,27.8L384.6,412.1z"/>
	<polygon class="st11" points="385.3,412.8 380.9,412.8 384.6,401.4 387.4,403.4 	"/>
	<polygon class="st25" points="385.3,412.8 380.9,412.8 384.6,401.4 387.4,403.4 	"/>
	<path class="st11" d="M395.5,405.4c-0.1,0.1-0.2,0.1-0.3,0c0,0,0-0.1,0-0.1c0-0.1-0.5-3.3,0.3-4.4c0.2-0.2,0.4-0.3,0.6-0.4
		c0.3-0.1,0.6,0,0.8,0.3c0.2,0.8,0.1,1.7-0.2,2.4C396.3,404,395.9,404.7,395.5,405.4z M395.5,401.5c-0.2,1.1-0.3,2.2-0.1,3.2
		c0.7-1.3,1.4-3.2,1-3.7c0-0.1-0.1-0.2-0.4-0.1c-0.2,0-0.3,0.1-0.4,0.3C395.6,401.3,395.5,401.4,395.5,401.5L395.5,401.5z"/>
	<path class="st11" d="M395.4,405.4c-0.1,0-0.1,0-0.2,0c-0.1,0-2-1-2.4-2.2c-0.1-0.4-0.1-0.7,0.1-1.1c0.2-0.5,0.5-0.5,0.7-0.5
		c0.9,0.2,1.8,2.5,1.9,3.6v0.1L395.4,405.4z M393.2,402.4c-0.1,0.2-0.1,0.5,0,0.7c0.4,0.8,1.1,1.4,1.9,1.8c-0.2-1.1-1-2.8-1.5-2.9
		c-0.1,0-0.2,0-0.3,0.3L393.2,402.4L393.2,402.4z"/>
	<path class="st9" d="M395.4,404.3c3-1.5,5-1.4,8-7c0.7-1.2,3.9,0.6,2.7,3.6c-2,5-2,3.7-3.7,8c-1.4,3.6-2.2,6.2-3.2,9.2l-0.1,0.2
		l0,0c-0.3,0.5-1,0.7-1.6,0.4c0,0,0,0,0,0l-6-4c-0.3-0.2-0.4-0.5-0.3-0.8l3-8.1C394.4,405.1,394.9,404.6,395.4,404.3z"/>
	<path class="st18" d="M308,358.5c-0.8-1.3-1.6-2.8-2.3-4.2c-2.2-4.7-2.9-16-3.1-23.9c0.7-3.2,1.6-6.4,2.7-9.6l5.7-2.6l2.7,4.5
		l1.6,3.5c0,0,1.7,21.1,6,26.1c2.8,3.2,5.6,6.2,7.2,8L308,358.5z"/>
	<path class="st24" d="M337.1,373.1c0,0-18.9-17.7-20.7-22.5s-2.9-26.2-2.9-26.2l-8.6,4.1c0,0,5.1,26,6.7,28.5
		c2.1,3.5,21.7,17.9,21.7,17.9L337.1,373.1z"/>
	<path class="st9" d="M309.8,313.5c6.7-1.6,5.5,14.5,5.7,19.6c0.2,4.1,1,13.2,2.9,17.3c2.8,5.9,16.6,19.9,16.6,19.9l-3.5,3.9
		c0,0-18.2-12.8-21.2-17.4C307.8,353.2,296.6,316.8,309.8,313.5z"/>
	<path class="st18" d="M344.8,330.9c0,4.2,0,14.3-1.4,20c-0.7-3-1.3-6.2-1.8-9.1C342.9,338.3,344,334.6,344.8,330.9z"/>
	<path class="st9" d="M331.9,295.3c0,0,3.6,1.5,0.9,5.5C333.2,298.9,332.9,296.9,331.9,295.3z"/>
	<path class="st9" d="M331.7,327.6c0,0,11.8-9.9,7.6-11.6S329.6,323.4,331.7,327.6z"/>
	<path class="st18" d="M320.2,317.4l-3-3.9c1.9,0.1,3.8,0.3,5.7,0.5l3.6,4.3l2.8,4.5l1.5,1.7v2.2
		C330.7,326.7,323.6,321.9,320.2,317.4z"/>
	<path class="st9" d="M331.7,328.2c0,0,0-15.9-10.3-18.1S332,326.8,331.7,328.2z"/>
	<path class="st9" d="M353,293.4v-0.2c1.5-0.1,4.7,0.1,4.4,3.3c-0.4,4.1-3.7,9.5-1.6,11.8c0,0-3.2-1.3-1-10.3
		C355.7,294.5,354,293.6,353,293.4z"/>
	<path class="st24" d="M329.5,301.8c-6.1-3.2-3.2-8.2-0.5-7.7l0,0c2.1,0.4,3.4,2.5,2.9,4.6c0,0,0,0,0,0
		C331.1,301.6,330.3,302.3,329.5,301.8z"/>
	<path class="st9" d="M339.2,299.8l-8.8-5l0.3-0.8l8.8,5l5.6,2l2.9,1l4.8,1.6l-0.3,1.5c-0.2,1.1-1,1.7-1.9,1.4l-1.9-0.6
		c-0.9-0.4-1.3-1.5-1.1-2.4l0.1-0.5L345,302l-0.1,0.5c-0.2,1-1,1.7-1.9,1.4l-2.9-1c-0.9-0.5-1.3-1.5-1.1-2.4L339.2,299.8z"/>
	<g class="st13">
		<path d="M344.5,303.3c-0.3,0.5-0.9,0.7-1.5,0.5l-2.9-1c-0.5-0.2-0.9-0.7-1-1.2C341.1,301.6,342.9,302.1,344.5,303.3z"/>
		<path d="M352.3,305.9c-0.3,0.5-0.9,0.7-1.5,0.6l-1.9-0.6c-0.6-0.2-1-0.8-1.1-1.4C349.4,304.5,350.9,305,352.3,305.9z"/>
	</g>
	<path class="st24" d="M364.6,371.4l7-0.8c0.4,0,0.7,0.1,1,0.4l3.6,4.1c0.4,0.4,0.4,1.1-0.1,1.5c-0.1,0-0.1,0.1-0.2,0.1l-1,0.6
		c-0.3,0.2-0.6,0.2-0.9,0.1l-6.2-1.9h-0.1l-6.1-1c-0.6-0.1-1-0.7-0.9-1.3c0-0.1,0-0.1,0.1-0.2l0,0c0.1-0.3,0.4-0.6,0.7-0.7l3-0.9
		L364.6,371.4z"/>
	<path class="st24" d="M336.6,372.4l7-0.8c0.4,0,0.7,0.1,1,0.4l3.6,4.1c0.4,0.4,0.4,1.1-0.1,1.5c-0.1,0-0.1,0.1-0.2,0.1l-1,0.6
		c-0.3,0.2-0.6,0.2-0.9,0.1l-6.2-1.9h-0.1l-6.1-1c-0.6-0.1-1-0.7-0.9-1.2c0-0.1,0-0.1,0.1-0.2l0,0c0.1-0.3,0.4-0.6,0.7-0.7l3-0.9
		L336.6,372.4z"/>
	<rect x="355.1" y="377" class="st9" width="17.2" height="2.8"/>
	<path class="st9" d="M356.5,379.8h-21.9c-0.8,0-1.4-0.6-1.4-1.4V377l0,0h23.2l0,0V379.8L356.5,379.8z"/>
	<path class="st25" d="M356.5,379.8h-21.9c-0.8,0-1.4-0.6-1.4-1.4V377l0,0h23.2l0,0V379.8L356.5,379.8z"/>
	<rect x="350.3" y="377.9" class="st9" width="2.8" height="1"/>
	<rect x="346" y="377.9" class="st9" width="2.8" height="1"/>
	<polygon class="st9" points="359.8,377 358,377 365.2,352 367,352 	"/>
	<polygon class="st25" points="359.8,377 358,377 365.2,352 367,352 	"/>
	<polygon class="st9" points="359.1,377 391.5,377 398.7,352 366.4,352 	"/>
	<polygon class="st12" points="359.1,377 391.5,377 398.7,352 366.4,352 	"/>
	<path class="st9" d="M357.6,377h33.7c0.6,0,1,0.6,1,1.4s-0.5,1.4-1,1.4h-33.7c-0.6,0-1-0.6-1-1.4S357,377,357.6,377z"/>
	<path class="st10" d="M357.6,377h33.7c0.6,0,1,0.6,1,1.4s-0.5,1.4-1,1.4h-33.7c-0.6,0-1-0.6-1-1.4S357,377,357.6,377z"/>
	<ellipse class="st9" cx="357.6" cy="378.4" rx="1" ry="1.4"/>
	<ellipse class="st25" cx="357.6" cy="378.4" rx="1" ry="1.4"/>
	<polygon class="st12" points="378,366.2 382.4,366.2 383.4,362.8 379,362.8 	"/>
</g>
</svg>
