<?xml version="1.0" encoding="utf-8"?>
<!-- Generator: Adobe Illustrator 28.0.0, SVG Export Plug-In . SVG Version: 6.00 Build 0)  -->
<svg version="1.1" id="Calque_2" xmlns="http://www.w3.org/2000/svg" xmlns:xlink="http://www.w3.org/1999/xlink" x="0px" y="0px"
	 viewBox="0 0 193.3 146.5" style="enable-background:new 0 0 193.3 146.5;" xml:space="preserve">
<style type="text/css">
	.st0{fill-rule:evenodd;clip-rule:evenodd;fill:#B5292A;}
	.st1{opacity:0.2;fill-rule:evenodd;clip-rule:evenodd;fill:#181714;}
	.st2{fill-rule:evenodd;clip-rule:evenodd;fill:#FFFFFF;}
</style>
<g>
	<path class="st0" d="M183,86.6c0,0,2.2-25.3-15.2-53.2C150.7,6,128-3.6,94.3,1.2C32.5,10-0.4,112.9,14.8,120.1l17,8.1
		c0,0,12.1-35.8,22.8-38.9C65.3,86.1,183,86.6,183,86.6z"/>
	<path class="st1" d="M36.4,116c3.8-9.1,10.2-21.5,15.5-25.5l0.8,3.9L84,74.7C57.8,94.1,62.4,49,63.1,42.7c1.1-1.7,1.1-1.6-1.5,0.6
		c-9.4,7.7-33.9,68.1-33.9,68.1S31.4,113.6,36.4,116L36.4,116z"/>
	<path class="st1" d="M51.9,79.7c0.8-5.3,3.4-16.6,3.4-16.6S43.9,89.1,40.3,98.4c-3.6,9.3-4.5,15.5-4.5,15.5l1.2,0.8
		c3.9-9,9.9-20.5,15-24.3l0.7,3.5l-0.7-5C51.9,89,51,86.2,51.9,79.7z"/>
	<path class="st2" d="M48.8,104.5c0,0,0.6,20.2,3.1,27.3c2.5,7.1,10.3,4.5,21.5,0.4c11.2-4,42.9-15.2,64-13
		c21,2.2,43.4,6.3,47.9,6.7c13.2,1.3,7.5-44.5,1.8-48.8c-29.1-21.9-94.3-21.7-124.4-1.3C50.1,84.3,49.2,94.4,48.8,104.5z"/>
	<ellipse class="st2" cx="21" cy="125.9" rx="21" ry="20.6"/>
	<path class="st1" d="M39.8,116.6c1.4,2.8,2.3,5.9,2.3,9.3c0,11.4-9.4,20.6-21,20.6c-11.6,0-21-9.2-21-20.6c0-0.3,0-0.7,0-1
		c3.5,6.7,10.6,11.3,18.8,11.3C30.1,136.2,39.3,127.5,39.8,116.6z"/>
	<path class="st1" d="M186.7,125.8c0.2,0,0.5-0.1,0.7-0.2c0.1-0.1,0.3-0.1,0.4-0.2c0.2-0.1,0.4-0.2,0.6-0.3c0.1-0.1,0.3-0.2,0.4-0.3
		c0.2-0.1,0.3-0.3,0.5-0.4c0.1-0.1,0.2-0.3,0.3-0.4c0.1-0.2,0.3-0.3,0.4-0.5c0.1-0.2,0.2-0.3,0.3-0.5c0.1-0.2,0.2-0.4,0.4-0.6
		c0.1-0.2,0.2-0.4,0.3-0.6c0.1-0.2,0.2-0.4,0.3-0.7c0.1-0.2,0.2-0.5,0.3-0.7c0.1-0.2,0.2-0.5,0.3-0.7c0.1-0.2,0.1-0.5,0.2-0.8
		c0.1-0.3,0.1-0.5,0.2-0.8c0.1-0.3,0.1-0.6,0.2-0.8c0.1-0.3,0.1-0.6,0.2-0.8c0.1-0.3,0.1-0.6,0.2-0.9c0-0.3,0.1-0.6,0.1-0.9
		c0-0.3,0.1-0.7,0.1-1c0-0.3,0.1-0.6,0.1-0.9c0-0.4,0.1-0.7,0.1-1.1c0-0.3,0-0.6,0.1-0.9c0-0.4,0-0.7,0.1-1.1c0-0.3,0-0.6,0-0.9
		c0-0.4,0-0.8,0-1.2c0-0.3,0-0.6,0-0.9c0-0.4,0-0.8,0-1.2c0-0.1,0-0.1,0-0.2c-3.7,6.2-8,10.3-18.8,8.5c-10.7-1.8-38.9-8.5-63.5-3.6
		c-24.6,4.9-33.8,7-49.9,2.4c-3.9-1.1-9-4.8-12.3-7.5c0.1,3.3,0.7,16.9,2.4,24.2c0.2,0.9,0.4,1.5,0.5,2c0,0.1,0.1,0.2,0.1,0.3
		c2.5,7.1,10.3,4.5,21.5,0.4c11.2-4,42.9-15.2,64-13c21,2.2,43.4,6.3,47.9,6.7c0.4,0,0.8,0,1.2,0
		C186.5,125.9,186.6,125.9,186.7,125.8z"/>
	<path class="st1" d="M184.5,120.2c-11.1,1.7-41.8-4.9-56.8-5.4c-15-0.4-37.7,5.6-54.4,11.2c-11.9,4-19.3,2.3-22.5,1
		c0.3,1.9,0.7,3.6,1.2,4.8c2.5,7.1,10.3,4.5,21.5,0.4c11.2-4,42.9-15.2,64-13c21,2.2,43.4,6.3,47.9,6.7c3.5,0.4,5.7-2.7,6.9-7.4
		C190.2,119.1,187.7,119.7,184.5,120.2z"/>
</g>
</svg>
