<?xml version="1.0" encoding="UTF-8"?>
<svg xmlns="http://www.w3.org/2000/svg" viewBox="0 0 1362.17 683.29">
  <defs>
    <style>
      .cls-1 {
        fill: #8adeff;
      }

      .cls-2 {
        fill: #327d8e;
      }

      .cls-3 {
        fill: #56b8d6;
      }
    </style>
  </defs>
  <g id="Calque_4" data-name="Calque 4">
    <path class="cls-1" d="m709.66,171.37c-14.85-37.61-2.48-80.84,30.65-104.02,29.43-20.59,72.39-39.62,130.7-39.62,127.06,0,177.24,80.29,186.27,96.1,9.04,15.81,28.31,49.03,28.31,136.55v226.16c0,16.02-4.14,31.87-12.64,45.46-9.53,15.25-25.48,30.49-51.18,30.49-51.39,0-77.93-46.31-77.93-73.98v-235.96c0-21.84-7.28-43.26-21.47-59.87-10.95-12.81-32.12-23.65-53.53-23.65-51.39,0-83.11,29.65-83.11,95.29,0,37.26-54.29-37.81-76.08-92.97Z"/>
  </g>
  <g id="Calque_3" data-name="Calque 3">
    <path class="cls-3" d="m405.13,99.45s59.86-72.28,159.24-72.28,165.46,70.59,173.36,80.75c7.91,10.16,48,59.86,48,121.97v256.08c0,20.87-7.75,41.24-22.46,56.04-10.27,10.33-24.5,18.79-43.61,18.79-49.13,0-78.49-37.83-78.49-82.45v-224.51c0-18.7-5.09-37.18-15.4-52.78-10.69-16.19-28.13-31.6-55.75-31.6-58.16,0-84.64,38.4-84.49,77.51s-80.4-147.54-80.4-147.54Z"/>
  </g>
  <g id="Calque_2" data-name="Calque 2">
    <path class="cls-2" d="m366.63,49.94c-52.14-26.93-115.2,12.51-111.91,71.1.61,10.92,3.59,21.37,10.65,29.37,25.41,28.8,69.88,40.23,74.12,94.02,3.51,44.57,3.24,192.1,3.04,241.34-.06,15.35,4.31,30.45,13.02,43.1,10.79,15.67,29.24,32.36,58.9,32.36,55.91,0,70.73-44.47,71.15-91.48.39-43.47.06-196.63,0-219.49,0-2.27-.1-4.5-.31-6.76-1.96-21.02-15.16-122.07-91.17-176.53-9.81-7.03-18.96-12.63-27.49-17.04Z"/>
  </g>
</svg>