<?xml version="1.0" encoding="utf-8"?>
<!-- Generator: Adobe Illustrator 28.0.0, SVG Export Plug-In . SVG Version: 6.00 Build 0)  -->
<svg version="1.1" id="Calque_1" xmlns="http://www.w3.org/2000/svg" xmlns:xlink="http://www.w3.org/1999/xlink" x="0px" y="0px"
	 viewBox="0 0 1080 1080" style="enable-background:new 0 0 1080 1080;" xml:space="preserve">
<style type="text/css">
	.st0{fill:#D53B3A;}
	.st1{fill:#FE726E;}
	.st2{fill:#8D2326;}
	.st3{fill:#FEFEFE;}
</style>
<g>
	<path class="st0" d="M655.1,513.1c0,73.5,0.4,146.9-0.2,220.4c-0.2,30.1-13.6,53.9-41.4,67.2c-29.2,13.9-68.6,1.5-87.7-26.1
		c-11.2-16.1-15.4-34.1-15.5-53.3c-0.1-74.5,0-148.9,0-223.4c0-23.3-7.5-43.8-22.7-61.3c-15.9-18.3-36.6-23.8-60-21.2
		c-16,1.8-31,6.3-43.8,16.3c-16.4,12.7-25.3,29.6-27.8,50.1c-0.1,1.1-0.5,2.2-0.8,3.3c-2.1-0.8-2.1-2.8-2.3-4.6
		c-4.3-32.6-13.6-63.7-28-93.2c-9.5-19.4-21.9-36.8-36.6-52.6c-1-1.1-2.4-1.9-2.3-3.7c13.6-12.4,28.2-23.2,44.3-32.2
		c22.6-12.6,46.5-21.5,72.2-25.4c5.2-0.8,10.6-0.4,15.8-1.4c0.7,0,1.3,0,2,0c2.1,1,4.4,0.3,6.6,0.5c5.8-0.3,11.6,0.6,17.4-0.5
		c2,0,4,0,6,0c13.4,0.9,26.7,2.7,39.7,6.3c34.2,9.5,64.8,25.9,92.2,48.4c2.3,1.9,4.8,3.6,6.9,5.8c25.9,22.4,43.2,50.7,55.9,82
		c9.9,24.4,13.7,49.8,10.8,76.2C654.8,498.1,655.9,505.6,655.1,513.1z"/>
	<path class="st1" d="M655.1,513.1c0-10.7-0.5-21.3,0-32c1.2-25.8-4.3-50.2-14.6-73.6c-10.9-24.6-25-47.2-44.1-66.5
		c-2.7-2.7-6.2-4.5-8.5-7.7c4-8.3,10.9-14.3,18-19.7c21.4-16.1,45.3-26.9,71.1-34c18.6-5.1,37.4-7.5,56.7-7c4.8,0,9.6,0,14.5,0
		c40.8-0.8,78.9,9.2,113.8,30.2c31.7,19,56.6,44.7,72.8,78.2c10.3,21.2,15.4,43.9,18.4,67.1c2,15.9,2.2,31.8,2.1,47.8
		c0,80.2-0.1,160.5,0,240.7c0,22-8.1,40.4-23.5,55.9c-9.1,9.2-20,14.7-33.1,15.4c-1,0-2,0-3,0c-3.3-1.1-6.7-0.2-10-0.5
		c-1.7-0.2-3.4,0.4-5-0.4c-22.5-2.7-39.9-14-52.9-32.1c-10.1-14.2-15.2-29.9-15.1-47.6c0.3-76.8,0.2-153.6,0.1-230.3
		c-0.1-24.1-7.8-45.5-25.2-62.6c-12.3-12.1-27.5-18.3-44.8-19.4c-19-1.2-37.1,1.8-53.3,12.4c-17.2,11.2-25.9,28-30.6,47.4
		c-2.6,10.9-3.4,22-3.2,33.1C655.9,509.5,656.3,511.4,655.1,513.1z"/>
	<path class="st2" d="M286.2,331.2c13.4,13.3,24.5,28.3,33.8,44.7c17.9,31.6,28.1,65.8,33.9,101.4c0.4,2.6-0.3,5.4,1.2,7.8
		c0,7,0.1,14,0.1,21c0.1,53.6,0.3,107.2,0.4,160.9c0,18.8,0,37.6-0.6,56.4c-0.5,17.4-3.5,34.4-11.7,50.1
		c-10.3,19.8-27,30.5-48.9,32.3c-43,3.7-75.2-22.1-81.8-64.8c-0.4-2.6-0.5-5.3-0.5-8c-0.1-45.5,0.2-90.9-0.3-136.4
		c-0.4-35.3-0.5-70.6-2.7-105.8c-1.5-24.8-13-44.3-31.9-59.8c-10.5-8.5-21.2-16.7-31.7-25.1c-10-8-17.8-17.4-20.2-30.5
		c-0.1-0.7-0.4-1.3-1.1-1.4c0-8,0-16,0-24c2.9-30.6,31-57.9,62.4-63.7c16.2-3,31.7-1.1,46.7,5.8c18.9,8.8,35.4,21,50.9,34.8
		C285.2,328.1,286.7,329.1,286.2,331.2z"/>
	<path class="st3" d="M955.1,495c-0.5-23.1-2.4-46-6.9-68.7c-7.6-38.6-25.5-71.3-54.5-98.1c-27.2-25.1-59.1-41-95-49.1
		c-16.4-3.7-33-5.9-49.8-6.1c-0.3-0.2-0.5-0.4-0.4-0.6c0.1-0.2,0.2-0.3,0.3-0.3c67.7,0,135.3,0,203-0.1c3.4,0,4.1,0.7,4.1,4.1
		c-0.1,73-0.1,145.9-0.1,218.9C955.6,495.5,955.4,495.5,955.1,495z"/>
	<path class="st3" d="M286.2,331.2c-19.5-18.5-40.3-35.1-66.7-42.3c-41.2-11.2-84,15.2-93.7,56.8c-0.3,1.5,0.1,3.4-1.7,4.4
		c0-24.7,0.1-49.3-0.1-74c0-3.4,0.7-4.1,4.1-4.1c96.6,0.1,193.3,0.1,289.9,0.1c-7.3,2.3-14.9,2.3-22.3,3.8
		c-38.7,7.6-72.4,25-102.4,50.3C291.1,328,289.4,330.7,286.2,331.2z"/>
	<path class="st3" d="M732.9,273c-34.3,0.9-67,8.5-97.6,24.1c-17.2,8.8-33.7,18.7-45.5,34.7c-0.5,0.6-1.2,1.1-1.9,1.6
		c-31.3-26.8-66.4-46.3-106.8-55.7c-9.4-2.2-18.9-3.7-28.5-4.6c-0.9-0.1-2,0.2-2.6-1c94.3,0,188.6,0,282.9,0
		c0.3,0.2,0.4,0.4,0.3,0.6C733.2,272.9,733,273,732.9,273z"/>
</g>
</svg>
