<?xml version="1.0" standalone="no"?>
<!DOCTYPE svg PUBLIC "-//W3C//DTD SVG 1.0//EN" "http://www.w3.org/TR/2001/REC-SVG-20010904/DTD/svg10.dtd">
<svg xmlns="http://www.w3.org/2000/svg" xmlns:xlink="http://www.w3.org/1999/xlink" id="body_1" width="1024" height="1024">

<g transform="matrix(0.75174177 0 0 0.75174177 -0 255.17123)">
	<g>
        <path d="M709.66 171.37C 694.81 133.76 707.18 90.53 740.31 67.35C 769.74 46.76 812.7 27.73 871.01 27.73C 998.07 27.73 1048.25 108.020004 1057.28 123.83C 1066.3201 139.64 1085.5901 172.86 1085.5901 260.38L1085.5901 260.38L1085.5901 486.54C 1085.5901 502.56 1081.4501 518.41003 1072.9501 532C 1063.42 547.25 1047.4701 562.49 1021.7701 562.49C 970.38007 562.49 943.8401 516.18 943.8401 488.50998L943.8401 488.50998L943.8401 252.54997C 943.8401 230.70998 936.56006 209.28998 922.3701 192.67998C 911.4201 179.86998 890.2501 169.02998 868.8401 169.02998C 817.4501 169.02998 785.7301 198.67998 785.7301 264.31998C 785.7301 301.58 731.4401 226.50998 709.6501 171.34998L709.6501 171.34998L709.66 171.37z" stroke="none" fill="#8ADEFF" fill-rule="nonzero" />
	</g>
	<g>
        <path d="M405.13 99.45C 405.13 99.45 464.99 27.169998 564.37 27.169998C 663.75 27.169998 729.83 97.759995 737.73 107.92C 745.63995 118.08 785.73 167.78 785.73 229.89L785.73 229.89L785.73 485.96997C 785.73 506.83997 777.98 527.20996 763.26996 542.00995C 752.99994 552.33997 738.76996 560.7999 719.66 560.7999C 670.52997 560.7999 641.17 522.9699 641.17 478.3499L641.17 478.3499L641.17 253.83992C 641.17 235.13992 636.07996 216.65991 625.76996 201.05992C 615.07996 184.86992 597.63995 169.45992 570.01996 169.45992C 511.85995 169.45992 485.37994 207.85992 485.52997 246.96991C 485.68 286.0799 405.12997 99.42992 405.12997 99.42992L405.12997 99.42992L405.13 99.45z" stroke="none" fill="#56B8D6" fill-rule="nonzero" />
	</g>
	<g>
        <path d="M366.63 49.94C 314.49 23.009998 251.43001 62.449997 254.72 121.03999C 255.33 131.95999 258.31 142.40999 265.37 150.40999C 290.78 179.20999 335.25 190.63998 339.49 244.43C 343 289 342.72998 436.53 342.53 485.77C 342.47 501.12 346.84 516.22 355.55 528.87C 366.34 544.54 384.78998 561.23 414.44998 561.23C 470.36 561.23 485.18 516.76 485.59998 469.74997C 485.99 426.27997 485.65997 273.11996 485.59998 250.25996C 485.59998 247.98996 485.49997 245.75996 485.28998 243.49997C 483.33 222.47997 470.12997 121.42997 394.12 66.96997C 384.31 59.939972 375.16 54.33997 366.63 49.92997L366.63 49.92997L366.63 49.94z" stroke="none" fill="#327D8E" fill-rule="nonzero" />
	</g>
</g>
</svg>