<?xml version="1.0" encoding="utf-8"?>
<!-- Generator: Adobe Illustrator 28.0.0, SVG Export Plug-In . SVG Version: 6.00 Build 0)  -->
<svg version="1.1" id="OBJECTS" xmlns="http://www.w3.org/2000/svg" xmlns:xlink="http://www.w3.org/1999/xlink" x="0px" y="0px"
	 viewBox="0 0 315.6 81.7" style="enable-background:new 0 0 315.6 81.7;" xml:space="preserve">
<style type="text/css">
	.st0{clip-path:url(#SVGID_00000046299051314591895960000017422440653925424282_);}
	.st1{fill:#FFFFFF;}
	.st2{opacity:0.3;clip-path:url(#SVGID_00000046299051314591895960000017422440653925424282_);}
	.st3{fill:#C13434;}
	.st4{opacity:0.15;clip-path:url(#SVGID_00000046299051314591895960000017422440653925424282_);}
	.st5{fill:#336EC2;}
	.st6{opacity:0.35;}
	.st7{opacity:0.15;}
</style>
<g>
	<g>
		<defs>
			<path id="SVGID_1_" d="M37.1,12.2C27.5,12.7,18,14.6,9,17.9c-4.6,1.7-9.9,5.3-8.9,10C1.3,33,8.3,33.6,13.6,33
				c10.7-1,21.6-1.4,31.9,1.4c14.7,4,28.3,14.3,43.4,12.3c9-1.2,17.4-6.9,26.3-5.6c5.4,0.7,10.2,3.9,15.6,4.3
				c4.3,0.3,8.6-1.2,12.8-2.4c15.4-4.5,32-5,47.7-1.7c12.4,2.7,25.6,7.7,37.3,2.9c4.4-1.8,11.5-3,14,1.1c3.6,5.9-2.1,17.3,5.9,17.3
				c8,0,0.2-17.6,8.4-17.6c8.2,0-1.9,38.1,9.9,36.8c9.5-1.1-2.5-36.7,7.9-36.7c10.4,0-0.1,17.7,7.5,17.7c7.6,0,0.1-22.8,10.9-23.1
				c23.1-0.7,23.3-7.2,22.3-9.7c-0.6-1.5-2.2-2.4-3.7-3.1c-9.7-4.4-20.8-5.6-29.6-11.6c-4.5-3.1-8.2-7.3-12.8-10.2
				c-11.9-7.6-27.6-5.4-41.1-1.3c-13.6,4.1-27.3,9.8-41.4,8.2c-8.1-0.9-15.8-4.2-23.9-5.5c-24.3-3.7-48,11.5-72.6,10.7
				c-11.2-0.4-22-4-33.1-5.8C46.2,9.6,20.5,12.4,9,17.9"/>
		</defs>
		<clipPath id="SVGID_00000110448381873867672890000005376805979088671617_">
			<use xlink:href="#SVGID_1_"  style="overflow:visible;"/>
		</clipPath>
		<g style="clip-path:url(#SVGID_00000110448381873867672890000005376805979088671617_);">
			<path class="st1" d="M37.1,12.2C27.5,12.7,18,14.6,9,17.9c-4.6,1.7-9.9,5.3-8.9,10C1.3,33,8.3,33.6,13.6,33
				c10.7-1,21.6-1.4,31.9,1.4c14.7,4,28.3,14.3,43.4,12.3c9-1.2,17.4-6.9,26.3-5.6c5.4,0.7,10.2,3.9,15.6,4.3
				c4.3,0.3,8.6-1.2,12.8-2.4c15.4-4.5,32-5,47.7-1.7c12.4,2.7,25.6,7.7,37.3,2.9c4.4-1.8,11.5-3,14,1.1c3.6,5.9-2.1,17.3,5.9,17.3
				c8,0,0.2-17.6,8.4-17.6c8.2,0-1.9,38.1,9.9,36.8c9.5-1.1-2.5-36.7,7.9-36.7c10.4,0-0.1,17.7,7.5,17.7c7.6,0,0.1-22.8,10.9-23.1
				c23.1-0.7,23.3-7.2,22.3-9.7c-0.6-1.5-2.2-2.4-3.7-3.1c-9.7-4.4-20.8-5.6-29.6-11.6c-4.5-3.1-8.2-7.3-12.8-10.2
				c-11.9-7.6-27.6-5.4-41.1-1.3c-13.6,4.1-27.3,9.8-41.4,8.2c-8.1-0.9-15.8-4.2-23.9-5.5c-24.3-3.7-48,11.5-72.6,10.7
				c-11.2-0.4-22-4-33.1-5.8C46.2,9.6,20.5,12.4,9,17.9"/>
		</g>
		<g style="opacity:0.3;clip-path:url(#SVGID_00000110448381873867672890000005376805979088671617_);">
			<g>
				<path class="st3" d="M0.5,20.4c-6.3,6.3-0.1,14,6.6,16.7c4.7,1.9,9.7,1.6,14.7,1c6.8-0.9,12.9-1.3,19.6,0.4
					c10.4,2.6,19.8,7.9,30.1,10.8c4.8,1.4,10,2.4,15,1.9c5.1-0.5,9.9-2.5,14.7-4.3c5.2-2,10.3-3.7,15.8-1.8
					c5.1,1.7,9.5,4.1,15.1,3.7c11.8-0.7,22.7-6.2,34.6-6.2c22,0,42.4,11.8,64.5,5.9c1.8-0.5,3.8-1.3,5.8-1.3c2.7-0.1,2.1,1.6,2,3.8
					c-0.2,4.3,0.2,8.9,2.9,12.4c3.6,4.6,11.3,4.3,14.4-1c1.7-3,1.1-7.3,1.1-10.6c0-0.7,0.1-6-2.3-3.8c-0.1,0.1,0.4,2.3,0.4,2.7
					c0.7,7.2-0.2,14.4,0.7,21.5c0.8,6,3.7,14.7,11.4,13.8c8.5-1,8.7-11.2,8.2-17.7c-0.3-4.3-0.9-8.5-1.1-12.8
					c-0.1-1.8-0.2-3.7,0-5.5c0-0.2,0.3-1.6,0.3-1.6c-1.2-1.7-1,0.8-1.2,1.5c-1.3,6.5-0.6,19.5,8.8,19.1c10.8-0.5,8.2-13.8,9.1-20.7
					c1.2-8.5,14.7-5,20.7-8.1c3.4-1.8,5.9-5,6.2-9c0.3-4.7-3.1-7.8-6.8-10.2c-5.3-3.5-11.4-4.9-17.1-7.5c-6-2.7-11-6.9-15.2-12
					c-3.2-3.9-8.8,1.7-5.6,5.6c6.4,7.8,14.4,12.4,23.8,15.7c2.6,0.9,13.1,4.1,13.4,7.8c0.3,3.5-5.8,3.9-7.9,4.1
					c-5.9,0.6-13,0.7-16.7,6.2c-2,2.9-2.3,6.6-2.3,10.1c0,1.7,0.2,3.5,0.1,5.2c0,1.5-1.1,7.5-3,3.6c-1.5-2.9,0.5-8-0.2-11.3
					c-0.6-3.1-2.4-6.8-5.8-7.6c-6.4-1.5-8,6.6-8.1,11.1c-0.1,7.3,2,14.6,1.4,21.8c-0.1,1.6-0.4,5.8-3.2,3.8c-0.8-0.6-1-2.2-1.3-3
					c-1-3.4-1-7.1-1.1-10.6c-0.1-5.6,0.7-11.8-0.7-17.3c-1.3-5-6.7-7.6-10.6-3c-2,2.3-1.8,5.3-1.8,8.2c0,1.7,1.1,7.4-1.3,7.4
					c-3.1,0-2.4-6.8-2.4-8.9c0.1-3.3-0.2-6.7-3-8.9c-5.6-4.4-14.5,0.6-20.6,1.3c-10.7,1.3-21.4-1.6-31.8-3.9
					c-10.2-2.3-20.7-4.4-31.2-3.1c-5.1,0.6-9.9,2-14.9,3.2c-5.1,1.3-11.1,3.3-16.4,2.5c-5.1-0.8-9.5-4.1-14.8-4.6
					c-5-0.4-10,1.3-14.6,3c-5.4,2-10.7,4.4-16.7,4.1c-5.8-0.3-11.4-2.2-16.7-4.2c-10.2-3.8-20.2-8.8-31.2-9.7
					c-5.9-0.5-11.6,0.9-17.4,1.4c-5.1,0.4-16.7-1.3-13.7-9.3C4.2,20.4,1.7,19.2,0.5,20.4L0.5,20.4z"/>
			</g>
		</g>
		<g style="opacity:0.15;clip-path:url(#SVGID_00000110448381873867672890000005376805979088671617_);">
			<g>
				<path class="st5" d="M290,25.7c0.4,0,0.4-0.6,0-0.6C289.6,25.1,289.6,25.7,290,25.7L290,25.7z"/>
			</g>
		</g>
	</g>
	<g>
		<g class="st6">
			<g>
				<path class="st3" d="M51,15.5c0.8,0,0.8-1.3,0-1.3C50.2,14.2,50.2,15.5,51,15.5L51,15.5z"/>
			</g>
		</g>
		<g class="st6">
			<g>
				<path class="st3" d="M41.9,18.2c0.4,0,0.4-0.6,0-0.6C41.5,17.6,41.5,18.2,41.9,18.2L41.9,18.2z"/>
			</g>
		</g>
		<g class="st6">
			<g>
				<path class="st3" d="M58.2,19.4c0.6,0,0.6-0.9,0-0.9C57.6,18.5,57.6,19.4,58.2,19.4L58.2,19.4z"/>
			</g>
		</g>
		<g class="st7">
			<g>
				<path class="st3" d="M120.7,27.8c0,0,0.1,0,0.1-0.1c0.1,0,0.1,0,0.2-0.1c0.1,0,0.1-0.1,0.1-0.2c0-0.1,0-0.2-0.1-0.2
					c-0.1,0-0.1-0.1-0.2-0.1c0,0-0.1,0-0.1-0.1c-0.1,0-0.1,0-0.2,0c-0.1,0-0.1,0-0.2,0.1c0,0,0,0-0.1,0.1c0,0.1,0,0.1,0,0.2
					c0,0.1,0,0.1,0,0.1c0,0,0,0.1,0.1,0.1c0,0,0.1,0.1,0.2,0.1C120.6,27.8,120.6,27.8,120.7,27.8L120.7,27.8z"/>
			</g>
		</g>
		<g class="st6">
			<g>
				<path class="st3" d="M139.6,26.9c0.2,0,0.2-0.3,0-0.3C139.4,26.6,139.4,26.9,139.6,26.9L139.6,26.9z"/>
			</g>
		</g>
		<g class="st6">
			<g>
				<path class="st3" d="M155.9,10.5c1,0,1-1.5,0-1.5C154.9,9,154.9,10.5,155.9,10.5L155.9,10.5z"/>
			</g>
		</g>
		<g class="st7">
			<g>
				<path class="st3" d="M145,14.9c0.5,0,0.5-0.8,0-0.8C144.6,14.1,144.6,14.9,145,14.9L145,14.9z"/>
			</g>
		</g>
		<g class="st7">
			<g>
				<path class="st3" d="M165.4,17c0.5,0,0.5-0.9,0-0.9C164.9,16.1,164.9,17,165.4,17L165.4,17z"/>
			</g>
		</g>
		<g class="st6">
			<g>
				<path class="st3" d="M249.1,8.1c0,0.1,0,0.2,0,0.3c0-0.1,0.1-0.3,0.1-0.4C249.2,8,249.2,8,249.1,8.1c0,0,0,0.2,0,0.3
					c0,0.2,0,0.3,0.1,0.4c0.1,0.3,0.4,0.4,0.7,0.4s0.6-0.2,0.7-0.4c0.1-0.1,0.1-0.3,0.1-0.4c0-0.2,0-0.3-0.1-0.4c0,0,0,0,0,0
					c0,0.1,0.1,0.3,0.1,0.4c0-0.1,0-0.2,0-0.3c0-0.1,0-0.2-0.1-0.3c0-0.1-0.1-0.2-0.2-0.3c-0.1-0.1-0.2-0.1-0.3-0.2
					c-0.1-0.1-0.2-0.1-0.3-0.1c-0.1,0-0.1,0-0.2,0c-0.1,0-0.3,0.1-0.4,0.2c0,0.1-0.1,0.1-0.1,0.2C249.2,7.8,249.1,7.9,249.1,8.1
					L249.1,8.1z"/>
			</g>
		</g>
		<g class="st7">
			<g>
				<path class="st3" d="M256.7,5.6c0.1,0,0.2,0,0.2-0.1c0.1,0,0.1-0.1,0.2-0.1c0.1-0.1,0.1-0.1,0.1-0.2c0-0.1,0.1-0.2,0.1-0.2
					c0-0.1,0-0.1,0-0.2c0-0.1-0.1-0.2-0.2-0.3c0,0-0.1-0.1-0.1-0.1c-0.1-0.1-0.2-0.1-0.3-0.1c-0.1,0-0.2,0-0.2,0.1
					c-0.1,0-0.1,0.1-0.2,0.1c-0.1,0.1-0.1,0.1-0.1,0.2c0,0.1-0.1,0.2-0.1,0.2c0,0.1,0,0.1,0,0.2c0,0.1,0.1,0.2,0.2,0.3
					c0,0,0.1,0.1,0.1,0.1C256.5,5.6,256.6,5.6,256.7,5.6L256.7,5.6z"/>
			</g>
		</g>
		<g class="st6">
			<g>
				<path class="st3" d="M264.2,10.1c0.4,0,0.4-0.6,0-0.6C263.8,9.5,263.8,10.1,264.2,10.1L264.2,10.1z"/>
			</g>
		</g>
		<g class="st6">
			<g>
				<path class="st3" d="M212.6,24.7c0.4,0,0.4-0.7,0-0.7C212.2,24,212.2,24.7,212.6,24.7L212.6,24.7z"/>
			</g>
		</g>
		<g class="st7">
			<g>
				<path class="st3" d="M216.7,17.9c0.1,0,0.2,0,0.3,0c0,0,0.1,0,0.1,0c0,0,0.1,0,0.1-0.1c0,0,0.1-0.1,0.1-0.1c0,0,0-0.1,0-0.1
					c0,0,0-0.1,0-0.1c0-0.1,0-0.1-0.1-0.2c0,0,0,0-0.1-0.1c-0.1,0-0.1,0-0.2,0c-0.1,0-0.2,0-0.3,0c0,0-0.1,0-0.1,0
					c0,0-0.1,0-0.1,0.1c0,0-0.1,0.1-0.1,0.1c0,0,0,0.1,0,0.1c0,0,0,0.1,0,0.1c0,0.1,0,0.1,0.1,0.2c0,0,0,0,0.1,0.1
					C216.5,17.9,216.6,17.9,216.7,17.9L216.7,17.9z"/>
			</g>
		</g>
	</g>
</g>
</svg>
